<svg xmlns="http://www.w3.org/2000/svg" viewBox="0 0 159.35 130.73"><defs><style>.cls-1{fill:#696969;}</style></defs><title>ambiente</title><g id="Capa_2" data-name="Capa 2"><g id="Capa_1-2" data-name="Capa 1"><path class="cls-1" d="M159.35,55.4a2.65,2.65,0,0,0-.14.54,46.5,46.5,0,0,1-.81,6.38A57.44,57.44,0,0,1,156.08,71a61.1,61.1,0,0,1-8.92,16.8,100.55,100.55,0,0,1-11.9,13.12,104.87,104.87,0,0,1-22.15,15.6,120.42,120.42,0,0,1-26.77,10.27c-2.95.75-5.92,1.39-8.91,2-2,.4-4,.67-6,.95s-3.82.48-5.73.69c-.9.1-1.8.15-2.7.18-1.8.06-3.61.16-5.42.11-2.22-.06-4.43-.23-6.65-.39a58.45,58.45,0,0,1-7.45-1.06,62.34,62.34,0,0,1-12.75-3.95,53.83,53.83,0,0,1-11.11-6.46A51.2,51.2,0,0,1,4.46,100.7a39.89,39.89,0,0,1-3-8.84c-.39-1.71-.7-3.43-1-5.17C.3,85.56.22,84.41.14,83.27S0,81,0,79.91A51.66,51.66,0,0,1,4.54,58.76,64.82,64.82,0,0,1,14,43.66a74.25,74.25,0,0,1,6.33-6.72A14.64,14.64,0,0,1,22.2,35.4c-.14.15-.28.31-.43.46A56.25,56.25,0,0,0,5.65,69.52a53.71,53.71,0,0,0-.38,6.57,47.44,47.44,0,0,0,.64,6.69c.33,2.07.72,4.13,1.23,6.16a49,49,0,0,0,7.55,16.78A41,41,0,0,0,27.5,117.36,49.88,49.88,0,0,0,42.7,123,58.85,58.85,0,0,0,49,124a53.85,53.85,0,0,0,7.46.29c1.65-.08,3.31-.23,5-.37,1.24-.1,2.48-.2,3.72-.33s2.57-.28,3.85-.46c1.71-.25,3.42-.52,5.12-.83,2.3-.43,4.6-.86,6.88-1.38a125,125,0,0,0,18.54-5.8,119.06,119.06,0,0,0,20.4-10.51,99.09,99.09,0,0,0,12.54-9.5c1.54-1.39,3-2.9,4.45-4.35.52-.51,1-1,1.55-1.56a63.27,63.27,0,0,0,17.12-31.92A60.47,60.47,0,0,0,156.61,50a51.76,51.76,0,0,0,.24-5.7,40.8,40.8,0,0,0-.62-5.89A61.66,61.66,0,0,0,152,24.72a7.57,7.57,0,0,1-.52-1.45c.31.57.63,1.14.93,1.72A61.1,61.1,0,0,1,158,39.67a46.84,46.84,0,0,1,1.1,6.7c.05.63.1,1.26.16,1.9a1.87,1.87,0,0,0,.13.39Z"/><path class="cls-1" d="M34.29,29.72a4,4,0,0,1,1.25-2.1,54.56,54.56,0,0,1,15.2-9.92A89.05,89.05,0,0,1,68.36,12q4.21-.93,8.48-1.54c1.81-.26,3.63-.47,5.45-.62,2.31-.19,4.62-.31,6.94-.46,0,0,.09,0,.07,0,.45-.69.84-1.37,1.31-2a9.57,9.57,0,0,1,4-2.85,13.15,13.15,0,0,1,5.55-1.1,15.72,15.72,0,0,1,6.28,1.52,23.23,23.23,0,0,1,6.25,4.29,3,3,0,0,1,.42.59c.1.16.16.36.28.51.27.35.51.34.74-.05a36.47,36.47,0,0,0,2.62-4.73c.24-.61.39-1.25.58-1.88a1.35,1.35,0,0,0-.2-1.18,2.17,2.17,0,0,1-.3-1.4,1,1,0,0,1,.4-.75,2.09,2.09,0,0,1,2.21,0,7,7,0,0,1,2.77,4.34,11.25,11.25,0,0,1-.42,5.56,13.33,13.33,0,0,1-1.82,4,2.51,2.51,0,0,0-.27.52c-.17.42-.12.64.17.83a.7.7,0,0,0,.93-.08c1-.83,2-1.71,3.07-2.48A29.57,29.57,0,0,1,135.47,7.9a36.11,36.11,0,0,1,4.85-.62A35,35,0,0,1,152,8.58c.23.06.44.16.78.28-1,.76-1.88,1.48-2.81,2.15a62.62,62.62,0,0,1-10.79,6.15,84.45,84.45,0,0,1-9.05,3.54c-.55.18-1.13.3-1.69.45a11.06,11.06,0,0,0-3.85,2,9.82,9.82,0,0,0-1.06.89,2,2,0,0,0-.45,2.4,3.23,3.23,0,0,1,.28,1.05,11,11,0,0,1-.78,5.59,19.45,19.45,0,0,1-3.52,5.36,34.66,34.66,0,0,1-6.41,5.54c-.24.16-.5.3-.75.46a2.5,2.5,0,0,0-.37.24.63.63,0,0,0,0,1.06c.76.8,1.52,1.59,2.28,2.38a128.2,128.2,0,0,1,8.54,9.75,46.44,46.44,0,0,1,4.85,7.31,12.19,12.19,0,0,1,1.26,3.34,7,7,0,0,1,.07,1.6c0,.51-.22.68-.73.75a3.65,3.65,0,0,1-2.14-.33,9,9,0,0,1-2.13-1.53,27.36,27.36,0,0,1-4.4-5.74c-3.22-5.27-6-10.78-8.74-16.32-.14-.28-.29-.56-.42-.8a10.53,10.53,0,0,1-1.33.1,2.07,2.07,0,0,1-2-1.62,15.73,15.73,0,0,1-.3-1.95,3.7,3.7,0,0,1,0-.46,1.21,1.21,0,0,0-.31-.17,6,6,0,0,1-4.25-3.59,12.88,12.88,0,0,1-1-3.42,21.36,21.36,0,0,1-.28-4.67,2.18,2.18,0,0,0-.4-1.37A5.54,5.54,0,0,0,97.25,27a8.44,8.44,0,0,0-3.14-.64,4,4,0,0,1-2.94-1.26,12.93,12.93,0,0,1-2.7-3.89A26.52,26.52,0,0,1,86.64,16c0-.19-.12-.37-.19-.58-.91-.1-1.8-.23-2.69-.3A62.64,62.64,0,0,0,75.63,15a72.23,72.23,0,0,0-17.51,3.12A84.14,84.14,0,0,0,35.43,28.92l-.6.42-.54.37m69.34,5.4a8.13,8.13,0,0,0,1.52,4.46,9.64,9.64,0,0,0,2.93,2.49,1.72,1.72,0,0,0,1.65.13,14.66,14.66,0,0,0,8.17-7.55,3.53,3.53,0,0,0,.36-1.84,8,8,0,0,0-2.75-5.55,15.09,15.09,0,0,0-5-2.81c-.5-.18-6.45-1.59-6.8-1.25-1.74,1.69,2.35,5.05,1.22,7.22a10.85,10.85,0,0,0-1.31,4.72M99.81,23.67V23.6h2.78a1.71,1.71,0,0,0,1.14-.42,11,11,0,0,0,3.74-5.8,7,7,0,0,0,0-3.61,6.24,6.24,0,0,0-4.05-4.39,15.34,15.34,0,0,0-5.59-1,1.66,1.66,0,0,0-1.53.68,3.26,3.26,0,0,1-.43.4c-.81.81-1.65,1.59-2.43,2.43a11.1,11.1,0,0,0-2,3,4,4,0,0,0-.41,2A8.19,8.19,0,0,0,93,21.63a5,5,0,0,0,3.31,1.84c1.16.13,2.33.15,3.5.21m42.7-10.84a3.33,3.33,0,0,0-.38-.12,19.47,19.47,0,0,0-6.84,0,25,25,0,0,0-11.43,5.43A48.31,48.31,0,0,0,120,22a2.55,2.55,0,0,0-.46.66c-.2.41,0,.76.41.81a2.77,2.77,0,0,0,1.15-.09c.88-.29,1.75-.61,2.6-1,3.67-1.58,7.24-3.38,10.82-5.16a45.21,45.21,0,0,1,5.56-2.6,10.48,10.48,0,0,0,1.76-.88,1.18,1.18,0,0,0,.69-.9m-24.93.79a2.28,2.28,0,0,0-.48.27,45,45,0,0,0-3.27,6.91,1.92,1.92,0,0,0,1.46.09c.15,0,.27-.26.35-.42a8.31,8.31,0,0,0,.35-1c.5-1.6,1-3.19,1.49-4.79a6,6,0,0,0,.09-1.09"/><path class="cls-1" d="M116.08,44.85l2.63.12c1.93.07,3.86.1,5.78.21,2.19.14,4.38.33,6.56.54,1.77.17,3.54.36,5.3.62a40,40,0,0,1,9.15,2.18,8.84,8.84,0,0,1,2.47,1.4,3.85,3.85,0,0,1,.43.4c.53.61.46,1.11-.23,1.57a4,4,0,0,1-1.57.56,15.71,15.71,0,0,1-4.81-.1c-1-.13-2-.28-3-.48a20,20,0,0,1-2-.55l-20.33-6.23c-.16,0-.31-.12-.47-.17Z"/><path class="cls-1" d="M58.21,92.27H57.07V81.41h1.49l2.2,8h.12l2.19-7.94h1.5V92.27H63.34V85.45l-.13,0-1.88,6.83h-1l-1.85-6.69h-.08a.16.16,0,0,0,0,.06.24.24,0,0,0,0,.07c0,.07,0,.15,0,.22q0,3.11,0,6.22a.79.79,0,0,1-.05.14"/><path class="cls-1" d="M64.82,73h-1L61.89,66.2a2.14,2.14,0,0,0-.16,1.1c0,.37,0,.73,0,1.1V73H60.57V62.23A4.94,4.94,0,0,1,62,62.17l2.21,8h.11l2.19-7.94h1.51V73H66.86V66.23l-.14,0c-.67,2.23-1.22,4.48-1.9,6.79"/><path class="cls-1" d="M68.94,92.28V81.44a3.44,3.44,0,0,1,.46-.06c.93,0,1.86,0,2.78,0a2.37,2.37,0,0,1,2.58,2.46,3,3,0,0,1-.86,2.66,3.77,3.77,0,0,1,.65,4.59,2.15,2.15,0,0,1-1.79,1.11l-3.44.1a3.73,3.73,0,0,1-.38,0m1.23-1.56c.83,0,1.56,0,2.27,0a1.33,1.33,0,0,0,1.22-1.17,1.87,1.87,0,0,0-.46-1.82.92.92,0,0,0-.45-.21,10.74,10.74,0,0,0-2.54-.07c0,.24,0,.41,0,.58,0,.87,0,1.75,0,2.71m0-4.81.67,0c.51,0,1,0,1.54,0s1-.57,1-1.37-.3-1.49-1-1.56S71,83,70.21,83Z"/><path class="cls-1" d="M69.67,73V62.21a4.89,4.89,0,0,1,.49,0c1,0,2,0,2.93,0a2.28,2.28,0,0,1,2.38,2,3.39,3.39,0,0,1-.79,3.1,3,3,0,0,1,1,1.5,4.37,4.37,0,0,1-.21,2.79A2.14,2.14,0,0,1,73.54,73c-1.26,0-2.53,0-3.87,0m1.27-1.44c.86,0,1.64-.07,2.41-.12a1.11,1.11,0,0,0,.93-.73,2.08,2.08,0,0,0,0-1.84,1.09,1.09,0,0,0-.77-.61,8.91,8.91,0,0,0-2.54,0Zm0-4.84c.79,0,1.49,0,2.19,0a1.13,1.13,0,0,0,1.08-1.1c.12-.87-.14-1.54-.69-1.78a.6.6,0,0,0-.21-.06,14.24,14.24,0,0,0-2.34,0c0,.16,0,.28,0,.4,0,.8,0,1.61,0,2.53"/><path class="cls-1" d="M94.34,92.26V81.42h1.29L99.14,89h.1c0-.61,0-1.23,0-1.85s0-1.27,0-1.9V81.44h1.17c.12.52.15,9.88,0,10.82H99.25L95.62,84.4a7.32,7.32,0,0,0-.06,1.39c0,.41,0,.83,0,1.24v5.23Z"/><path class="cls-1" d="M91.69,69.8V62.23a4.91,4.91,0,0,1,1.12-.07c.13.58.16,9.93,0,10.81l-.55,0h-.65l-1.8-3.9c-.59-1.28-1.18-2.55-1.9-3.79V73H86.8V62.24A3.18,3.18,0,0,1,88,62.17l3.54,7.68.12,0"/><path class="cls-1" d="M21.16,65.61H20a10.72,10.72,0,0,0-.27-1,1.66,1.66,0,0,0-2.27-1,1.29,1.29,0,0,0-.87,1.23,1.24,1.24,0,0,0,.72,1.26,9.16,9.16,0,0,0,.88.34c.51.17,1,.32,1.52.51a2.59,2.59,0,0,1,1.69,2,4.36,4.36,0,0,1-.13,2.52,2.65,2.65,0,0,1-1.92,1.75,3.13,3.13,0,0,1-3.94-1.89,5.68,5.68,0,0,1-.4-2.16h1.27c0,.14,0,.3.09.46a6.17,6.17,0,0,0,.3,1,1.91,1.91,0,0,0,2.53.95,1.57,1.57,0,0,0,1-1.49,1.41,1.41,0,0,0-.91-1.44c-.43-.18-.87-.32-1.31-.47s-.6-.2-.9-.31a2.85,2.85,0,0,1-1.81-3.23,3.77,3.77,0,0,1,.2-.85,2.7,2.7,0,0,1,2.62-1.87,2.64,2.64,0,0,1,2.71,1.72,4.06,4.06,0,0,1,.36,2"/><path class="cls-1" d="M25.58,86.84a9,9,0,0,1,.51-2.95,4.85,4.85,0,0,1,1.25-1.95,3,3,0,0,1,4.42.29A5.88,5.88,0,0,1,33,84.93a9.23,9.23,0,0,1-.24,4.69,5.06,5.06,0,0,1-1.24,2,3.07,3.07,0,0,1-4.43-.19,5.69,5.69,0,0,1-1.29-2.74c-.11-.62-.15-1.25-.22-1.88m6.22,0a9.41,9.41,0,0,0,0-1,4.09,4.09,0,0,0-1-2.51,1.81,1.81,0,0,0-2.76.07,3.56,3.56,0,0,0-.6,1,6.77,6.77,0,0,0-.1,4.65,3.86,3.86,0,0,0,.82,1.36,1.79,1.79,0,0,0,2.75-.11,4.8,4.8,0,0,0,.53-.87,4.93,4.93,0,0,0,.42-2.56"/><path class="cls-1" d="M112.18,86.82a8.41,8.41,0,0,1-.65,3.28,4.42,4.42,0,0,1-1.34,1.79,3,3,0,0,1-3.84-.14,5.43,5.43,0,0,1-1.64-3.19,9.22,9.22,0,0,1,.13-4.06,5.17,5.17,0,0,1,1.52-2.61,3,3,0,0,1,4.06,0,5.38,5.38,0,0,1,1.54,3c.12.62.15,1.25.22,1.88m-6.22,0c0,.34,0,.69,0,1a4.34,4.34,0,0,0,.87,2.29,1.81,1.81,0,0,0,2.95.1,4.17,4.17,0,0,0,.75-1.4,6.71,6.71,0,0,0-.06-4.23,4.07,4.07,0,0,0-.62-1.15,1.8,1.8,0,0,0-2.95-.05,5,5,0,0,0-.67,1.2,4.86,4.86,0,0,0-.28,2.22"/><path class="cls-1" d="M53,86.64a7.78,7.78,0,0,1-.86,3.89,6.13,6.13,0,0,1-.93,1.2,3,3,0,0,1-4,0,5,5,0,0,1-1.43-2.34A8.77,8.77,0,0,1,45.91,84a5.71,5.71,0,0,1,.92-1.65,3,3,0,0,1,4.86,0,5.92,5.92,0,0,1,1.18,2.72c.11.6.14,1.21.18,1.58m-6.31.19c.05.47.08,1,.18,1.53a4.29,4.29,0,0,0,.92,2,1.88,1.88,0,0,0,2.78,0,4.09,4.09,0,0,0,.82-1.53,7.31,7.31,0,0,0,0-4,3.21,3.21,0,0,0-1-1.65,1.7,1.7,0,0,0-2.33,0,4,4,0,0,0-.73,1,6.7,6.7,0,0,0-.58,2.69"/><path class="cls-1" d="M48.87,67.57a8.66,8.66,0,0,1-.55,3.08,4.52,4.52,0,0,1-1.42,2,3,3,0,0,1-4.2-.47,5.71,5.71,0,0,1-1.31-3,9.73,9.73,0,0,1,.27-4.27A5.11,5.11,0,0,1,43,62.72a3,3,0,0,1,4.16,0,5.24,5.24,0,0,1,1.47,2.8c.13.66.17,1.35.25,2m-1.37,0a5.59,5.59,0,0,0-.3-2.14A3.35,3.35,0,0,0,46.3,64a1.75,1.75,0,0,0-2.55.08A3.74,3.74,0,0,0,43,65.33,6.89,6.89,0,0,0,43,70a3,3,0,0,0,.87,1.24,1.76,1.76,0,0,0,2.34,0A3.16,3.16,0,0,0,47.09,70a5.79,5.79,0,0,0,.4-2.44"/><path class="cls-1" d="M22.77,62.17H28.2a5.51,5.51,0,0,1,.05,1.53l-2.1,0H24c0,1,0,1.94,0,3h3.87v1.44c-1.25.06-2.51,0-3.76,0a11.93,11.93,0,0,0-.06,3.27,11.59,11.59,0,0,0,2.15.07c.7,0,1.4,0,2.14,0,0,.32,0,.56,0,.79s0,.43,0,.67H22.77Z"/><path class="cls-1" d="M85.55,71.51V73H80c-.13-.52-.17-9.67,0-10.77h5.42a5.84,5.84,0,0,1,.06,1.5c-.71,0-1.41,0-2.1,0H81.2c0,.54,0,1,0,1.5s0,.92,0,1.45c1.3.06,2.53,0,3.81,0v1.41c-1.22.07-2.45,0-3.68,0a11.82,11.82,0,0,0-.07,3.27,12.59,12.59,0,0,0,2.15.07c.7,0,1.4,0,2.15,0"/><path class="cls-1" d="M21.91,84.81l-1.18.11c-.06-.21-.12-.43-.21-.65a3.94,3.94,0,0,0-.33-.73,1.66,1.66,0,0,0-2.82-.15,4,4,0,0,0-.66,1.29,7.34,7.34,0,0,0,.1,4.46,4.58,4.58,0,0,0,.66,1.21,1.58,1.58,0,0,0,2.57-.12,7,7,0,0,0,.6-1.4,5.4,5.4,0,0,0,.17-.82H22c.21.37,0,.75-.07,1.11a5,5,0,0,1-1.27,2.59,2.82,2.82,0,0,1-3.9.05,5.55,5.55,0,0,1-.93-1.3,7.25,7.25,0,0,1-.75-3,9.16,9.16,0,0,1,.32-3.19A5.54,5.54,0,0,1,16.64,82a2.87,2.87,0,0,1,4.41.27,4.59,4.59,0,0,1,.86,2.51"/><path class="cls-1" d="M90.83,92.27l-.47,0h-.94l-.8-3.18-1.3,0H85.95l-.8,3.17H83.79L86.62,81.4l.7,0H88l2.87,10.9m-4.52-4.72a9,9,0,0,0,1.92-.1l-.89-3.54h-.12l-.91,3.64"/><path class="cls-1" d="M55.55,62.19H56.9l2.83,10.76a6.59,6.59,0,0,1-1.38.08l-.82-3.19c-.87-.05-1.73,0-2.65,0L54.09,73H52.73c.91-3.63,1.87-7.18,2.81-10.79m1.61,6.09a22,22,0,0,0-1-3.56l-.88,3.56Z"/><path class="cls-1" d="M106,73h-1.41l-.79-3.14a23.27,23.27,0,0,0-2.65,0L100.4,73H99.13a1.81,1.81,0,0,1,0-.42q1.34-5.12,2.7-10.24s0,0,.08-.11h1.32L106,73m-4.48-4.67a7.63,7.63,0,0,0,1.91-.06l-.88-3.55h-.14l-.89,3.61"/><path class="cls-1" d="M99.77,62.21v1.5H97.45c0,1.09,0,2.11,0,3.12s0,2,0,3V73h-1.3V63.73H93.76a6.4,6.4,0,0,1-.05-1.46,44.06,44.06,0,0,1,6.06-.06"/><path class="cls-1" d="M42.44,90.75c0,.22,0,.38,0,.55s0,.62,0,1H37.32c-.14-.54-.19-9.45-.06-10.85h1.25v9.3c1.33,0,2.62,0,3.93,0"/><path class="cls-1" d="M35.82,62.17H37c0,.62,0,1.22,0,1.82s0,1.22,0,1.83v5.61a10.17,10.17,0,0,0,2,.08c.63,0,1.26,0,1.92,0V73H35.85c-.12-.55-.15-9.81,0-10.8"/><path class="cls-1" d="M108.15,62.2v9.27c1.32.11,2.6,0,3.92.08V73H107c-.13-.54-.16-9.87,0-10.78Z"/><path class="cls-1" d="M29.66,62.17h1.21c0,.79,0,1.56,0,2.33s0,1.52,0,2.27v4.69c.69.07,1.34,0,2,0h1.93V73H29.7c-.13-.52-.16-9.76,0-10.8"/><path class="cls-1" d="M79,81.39H80.2c.13.58.18,9,.07,10.81a2.08,2.08,0,0,1-1.23,0Z"/><path class="cls-1" d="M78.24,73H77V62.2h1.15c.15.51.21,9.14.07,10.78"/><path class="cls-1" d="M98,20.93h-.8a2.17,2.17,0,0,1-1.92-1,7,7,0,0,1-.72-1.35,14.36,14.36,0,0,1-.64-1.93A3.51,3.51,0,0,1,95,13.19a9.32,9.32,0,0,1,3.41-1.94.7.7,0,0,1,.35,0,8.12,8.12,0,0,1,4.39,2,2.26,2.26,0,0,1,.64,1.19,4,4,0,0,1-.58,3.35c-.24.36-.45.75-.68,1.13a4.21,4.21,0,0,1-3.41,2.09c-.36,0-.73,0-1.1,0Zm1.06-2.6a2,2,0,0,0,1.77-.68,6.59,6.59,0,0,0,.78-1.31,1.5,1.5,0,0,0-.48-1.69,3.76,3.76,0,0,0-1.59-.69.7.7,0,0,0-.42,0,7,7,0,0,0-1.38.79,1.51,1.51,0,0,0-.49,1.77c.08.2.13.42.2.63a1.45,1.45,0,0,0,1.62,1.16"/></g></g></svg>