<svg xmlns="http://www.w3.org/2000/svg" viewBox="0 0 271.45 87.18"><defs><style>.cls-1{fill:#a3a3a3;}</style></defs><title>bureau</title><g id="Capa_2" data-name="Capa 2"><g id="Capa_1-2" data-name="Capa 1"><path class="cls-1" d="M99.88,34.35a5.15,5.15,0,0,1-.39,1.47A3.52,3.52,0,0,1,98.68,37a3.67,3.67,0,0,1-1.27.77,5,5,0,0,1-1.75.28,4.28,4.28,0,0,1-1.79-.37,3.88,3.88,0,0,1-1.37-1A4.81,4.81,0,0,1,91.6,35a6.83,6.83,0,0,1-.31-2.12V31.76a6.76,6.76,0,0,1,.31-2.13A4.72,4.72,0,0,1,92.5,28,4,4,0,0,1,93.92,27a4.52,4.52,0,0,1,1.86-.37,4.69,4.69,0,0,1,1.67.28,3.56,3.56,0,0,1,1.24.77,3.66,3.66,0,0,1,.81,1.18,5.08,5.08,0,0,1,.38,1.51H98.4a5,5,0,0,0-.26-1,2.35,2.35,0,0,0-.49-.8,2,2,0,0,0-.77-.51,3.09,3.09,0,0,0-1.1-.18,2.84,2.84,0,0,0-1.3.29,2.65,2.65,0,0,0-.94.8A3.64,3.64,0,0,0,93,30.13a6.36,6.36,0,0,0-.19,1.61v1.13a6.59,6.59,0,0,0,.17,1.54,4,4,0,0,0,.52,1.26,2.6,2.6,0,0,0,.9.85,2.56,2.56,0,0,0,1.29.31,3.62,3.62,0,0,0,1.19-.17,2.08,2.08,0,0,0,.8-.49,2.2,2.2,0,0,0,.49-.78,5.33,5.33,0,0,0,.27-1.05Z"/><path class="cls-1" d="M110.46,32.67a7.39,7.39,0,0,1-.32,2.25,5,5,0,0,1-.9,1.69,3.84,3.84,0,0,1-1.41,1.07A4.52,4.52,0,0,1,106,38a4.44,4.44,0,0,1-1.81-.37,4,4,0,0,1-1.43-1.07,5,5,0,0,1-.93-1.69,7.14,7.14,0,0,1-.33-2.25V32a7.18,7.18,0,0,1,.33-2.25,5.06,5.06,0,0,1,.92-1.7A4,4,0,0,1,104.16,27a4.38,4.38,0,0,1,1.82-.37,4.48,4.48,0,0,1,1.85.37A3.92,3.92,0,0,1,109.24,28a4.92,4.92,0,0,1,.9,1.7,7.43,7.43,0,0,1,.32,2.25ZM109,31.95a6.93,6.93,0,0,0-.2-1.76,3.72,3.72,0,0,0-.59-1.29,2.56,2.56,0,0,0-1-.79,2.92,2.92,0,0,0-1.27-.27,2.83,2.83,0,0,0-1.24.27,2.6,2.6,0,0,0-1,.79,3.85,3.85,0,0,0-.61,1.29,6.56,6.56,0,0,0-.21,1.76v.72a6.45,6.45,0,0,0,.22,1.77,3.86,3.86,0,0,0,.62,1.29,2.6,2.6,0,0,0,1,.79,2.83,2.83,0,0,0,1.24.27,2.92,2.92,0,0,0,1.28-.27,2.51,2.51,0,0,0,.95-.79,3.73,3.73,0,0,0,.58-1.29,7,7,0,0,0,.2-1.77Z"/><polygon class="cls-1" points="121.24 37.88 119.76 37.88 114.15 29.29 114.15 37.88 112.67 37.88 112.67 26.73 114.15 26.73 119.78 35.36 119.78 26.73 121.24 26.73 121.24 37.88"/><polygon class="cls-1" points="127.55 35.93 130.74 26.73 132.35 26.73 128.21 37.88 126.91 37.88 122.78 26.73 124.38 26.73 127.55 35.93"/><polygon class="cls-1" points="140.14 32.73 135.31 32.73 135.31 36.68 140.92 36.68 140.92 37.88 133.84 37.88 133.84 26.73 140.84 26.73 140.84 27.94 135.31 27.94 135.31 31.53 140.14 31.53 140.14 32.73"/><polygon class="cls-1" points="151.32 37.88 149.84 37.88 144.23 29.29 144.23 37.88 142.75 37.88 142.75 26.73 144.23 26.73 149.86 35.36 149.86 26.73 151.32 26.73 151.32 37.88"/><polygon class="cls-1" points="161.42 27.94 157.84 27.94 157.84 37.88 156.37 37.88 156.37 27.94 152.8 27.94 152.8 26.73 161.42 26.73 161.42 27.94"/><rect class="cls-1" x="163.18" y="26.73" width="1.47" height="11.15"/><path class="cls-1" d="M175.92,32.67a7.39,7.39,0,0,1-.32,2.25,5,5,0,0,1-.9,1.69,3.84,3.84,0,0,1-1.41,1.07,4.52,4.52,0,0,1-1.85.37,4.43,4.43,0,0,1-1.82-.37,4,4,0,0,1-1.43-1.07,5,5,0,0,1-.93-1.69,7.17,7.17,0,0,1-.33-2.25V32a7.21,7.21,0,0,1,.33-2.25,5.08,5.08,0,0,1,.92-1.7A4,4,0,0,1,169.62,27a4.39,4.39,0,0,1,1.82-.37,4.48,4.48,0,0,1,1.85.37A3.93,3.93,0,0,1,174.7,28a4.94,4.94,0,0,1,.9,1.7,7.43,7.43,0,0,1,.32,2.25Zm-1.46-.72a6.88,6.88,0,0,0-.2-1.76,3.7,3.7,0,0,0-.59-1.29,2.55,2.55,0,0,0-1-.79,2.93,2.93,0,0,0-1.28-.27,2.83,2.83,0,0,0-1.24.27,2.6,2.6,0,0,0-1,.79,3.83,3.83,0,0,0-.61,1.29,6.52,6.52,0,0,0-.21,1.76v.72a6.45,6.45,0,0,0,.22,1.77,3.84,3.84,0,0,0,.62,1.29,2.61,2.61,0,0,0,1,.79,2.83,2.83,0,0,0,1.24.27,2.92,2.92,0,0,0,1.28-.27,2.51,2.51,0,0,0,.95-.79,3.73,3.73,0,0,0,.59-1.29,7,7,0,0,0,.2-1.77Z"/><polygon class="cls-1" points="186.7 37.88 185.22 37.88 179.61 29.29 179.61 37.88 178.13 37.88 178.13 26.73 179.61 26.73 185.24 35.36 185.24 26.73 186.7 26.73 186.7 37.88"/><path class="cls-1" d="M192.67,34.89a2.54,2.54,0,0,1,.16-.92,3,3,0,0,1,.44-.77,4.61,4.61,0,0,1,.69-.69q.4-.33.87-.67-.28-.35-.51-.66a5.14,5.14,0,0,1-.39-.62,3,3,0,0,1-.25-.62,2.35,2.35,0,0,1-.09-.64,3.13,3.13,0,0,1,.2-1.16,2.3,2.3,0,0,1,.57-.85,2.46,2.46,0,0,1,.88-.52,3.44,3.44,0,0,1,1.14-.18,3,3,0,0,1,1.1.19,2.58,2.58,0,0,1,.83.51,2.21,2.21,0,0,1,.53.75,2.28,2.28,0,0,1,.18.9,2.33,2.33,0,0,1-.11.74,2.59,2.59,0,0,1-.31.63,3.15,3.15,0,0,1-.48.55q-.28.26-.61.51l-.84.62,2.48,3a4.57,4.57,0,0,0,.38-1,4.94,4.94,0,0,0,.14-1.19H201a6.52,6.52,0,0,1-.23,1.77A4.6,4.6,0,0,1,200,36l1.59,1.91h-1.7l-.74-.88a3.67,3.67,0,0,1-.64.46,4.16,4.16,0,0,1-.71.32A4.81,4.81,0,0,1,197,38a4.68,4.68,0,0,1-.77.07,4.58,4.58,0,0,1-1.51-.23,3.33,3.33,0,0,1-1.14-.65,2.78,2.78,0,0,1-.72-1,3.17,3.17,0,0,1-.25-1.27m3.61,2a2.76,2.76,0,0,0,1.08-.22,3.38,3.38,0,0,0,1-.64l-2.72-3.26-.32.24a3.75,3.75,0,0,0-.65.59,2.72,2.72,0,0,0-.36.53,1.63,1.63,0,0,0-.16.44,1.91,1.91,0,0,0,0,.32,2.21,2.21,0,0,0,.14.77,1.73,1.73,0,0,0,.41.64,1.91,1.91,0,0,0,.69.43,2.7,2.7,0,0,0,1,.16M195,29.24a1.85,1.85,0,0,0,.24.88,6.09,6.09,0,0,0,.66,1l.8-.57a4.46,4.46,0,0,0,.43-.32,1.93,1.93,0,0,0,.32-.34,1.33,1.33,0,0,0,.2-.4,1.77,1.77,0,0,0,.07-.51,1.15,1.15,0,0,0-.09-.44,1.09,1.09,0,0,0-.26-.38,1.34,1.34,0,0,0-.42-.27,1.49,1.49,0,0,0-.58-.1,1.37,1.37,0,0,0-.59.12,1.22,1.22,0,0,0-.42.33,1.42,1.42,0,0,0-.26.48,1.86,1.86,0,0,0-.09.58"/><polygon class="cls-1" points="210.52 35.93 213.71 26.73 215.32 26.73 211.18 37.88 209.88 37.88 205.75 26.73 207.35 26.73 210.52 35.93"/><rect class="cls-1" x="216.92" y="26.73" width="1.47" height="11.15"/><path class="cls-1" d="M227,35.07a1.84,1.84,0,0,0-.12-.69,1.36,1.36,0,0,0-.42-.55,3.34,3.34,0,0,0-.82-.47,11.68,11.68,0,0,0-1.3-.45,11.22,11.22,0,0,1-1.5-.54,4.93,4.93,0,0,1-1.14-.7,2.83,2.83,0,0,1-.72-.9,2.57,2.57,0,0,1-.25-1.16,2.71,2.71,0,0,1,.27-1.21,2.89,2.89,0,0,1,.77-1,3.65,3.65,0,0,1,1.2-.64,5,5,0,0,1,1.55-.23,4.62,4.62,0,0,1,1.68.28,3.75,3.75,0,0,1,1.24.75,3.15,3.15,0,0,1,.76,1.08,3.2,3.2,0,0,1,.26,1.27H227a2.44,2.44,0,0,0-.15-.87,1.82,1.82,0,0,0-.46-.69,2.11,2.11,0,0,0-.77-.45,3.28,3.28,0,0,0-1.09-.16,3.45,3.45,0,0,0-1,.14,2.07,2.07,0,0,0-.72.38,1.5,1.5,0,0,0-.42.57,1.84,1.84,0,0,0-.14.72,1.4,1.4,0,0,0,.15.64,1.64,1.64,0,0,0,.46.54,3.58,3.58,0,0,0,.81.45,10.08,10.08,0,0,0,1.18.4,10.53,10.53,0,0,1,1.64.59,4.46,4.46,0,0,1,1.14.74,2.71,2.71,0,0,1,.67.92A3,3,0,0,1,228.5,35a2.65,2.65,0,0,1-1.06,2.18,3.72,3.72,0,0,1-1.23.6,5.9,5.9,0,0,1-2.62.11,5,5,0,0,1-1-.29,4.38,4.38,0,0,1-.87-.48,3.38,3.38,0,0,1-.7-.66,3,3,0,0,1-.47-.84,3,3,0,0,1-.17-1h1.48a1.92,1.92,0,0,0,.83,1.66,2.62,2.62,0,0,0,.87.39,4.19,4.19,0,0,0,1,.13,2.89,2.89,0,0,0,1.78-.48,1.54,1.54,0,0,0,.62-1.29"/><rect class="cls-1" x="230.49" y="26.73" width="1.47" height="11.15"/><polygon class="cls-1" points="242.13 27.94 238.55 27.94 238.55 37.88 237.08 37.88 237.08 27.94 233.51 27.94 233.51 26.73 242.13 26.73 242.13 27.94"/><path class="cls-1" d="M252.15,32.67a7.36,7.36,0,0,1-.32,2.25,5,5,0,0,1-.9,1.69,3.84,3.84,0,0,1-1.41,1.07,4.51,4.51,0,0,1-1.85.37,4.44,4.44,0,0,1-1.81-.37,4,4,0,0,1-1.43-1.07,5,5,0,0,1-.93-1.69,7.14,7.14,0,0,1-.33-2.25V32a7.18,7.18,0,0,1,.33-2.25,5.06,5.06,0,0,1,.92-1.7A4,4,0,0,1,245.85,27a4.38,4.38,0,0,1,1.82-.37,4.48,4.48,0,0,1,1.85.37A3.92,3.92,0,0,1,250.93,28a4.9,4.9,0,0,1,.9,1.7,7.4,7.4,0,0,1,.32,2.25Zm-1.46-.72a6.93,6.93,0,0,0-.2-1.76,3.72,3.72,0,0,0-.59-1.29,2.56,2.56,0,0,0-1-.79,2.92,2.92,0,0,0-1.27-.27,2.83,2.83,0,0,0-1.24.27,2.6,2.6,0,0,0-1,.79,3.83,3.83,0,0,0-.61,1.29,6.52,6.52,0,0,0-.21,1.76v.72a6.45,6.45,0,0,0,.22,1.77,3.84,3.84,0,0,0,.62,1.29,2.61,2.61,0,0,0,1,.79,2.83,2.83,0,0,0,1.24.27,2.92,2.92,0,0,0,1.28-.27,2.51,2.51,0,0,0,.95-.79,3.73,3.73,0,0,0,.59-1.29,7,7,0,0,0,.2-1.77Z"/><path class="cls-1" d="M258.45,33.37h-2.62v4.51h-1.48V26.73H258a4.37,4.37,0,0,1,2.9.86,3.09,3.09,0,0,1,1,2.5,3,3,0,0,1-.56,1.82,3.36,3.36,0,0,1-1.57,1.16l2.62,4.73v.09h-1.58Zm-2.62-1.2h2.26a3.05,3.05,0,0,0,1-.16,2.17,2.17,0,0,0,.75-.44,1.81,1.81,0,0,0,.45-.66,2.19,2.19,0,0,0,.15-.82,2.57,2.57,0,0,0-.14-.88,1.72,1.72,0,0,0-.44-.68,2,2,0,0,0-.76-.44,3.45,3.45,0,0,0-1.09-.15h-2.21Z"/><path class="cls-1" d="M270,35.07a1.88,1.88,0,0,0-.12-.69,1.39,1.39,0,0,0-.42-.55,3.36,3.36,0,0,0-.82-.47,11.68,11.68,0,0,0-1.3-.45,11.17,11.17,0,0,1-1.5-.54,4.91,4.91,0,0,1-1.14-.7,2.81,2.81,0,0,1-.72-.9,2.56,2.56,0,0,1-.25-1.16,2.71,2.71,0,0,1,.27-1.21,2.88,2.88,0,0,1,.77-1,3.66,3.66,0,0,1,1.19-.64,5,5,0,0,1,1.56-.23,4.61,4.61,0,0,1,1.68.28,3.77,3.77,0,0,1,1.24.75,3.15,3.15,0,0,1,.76,1.08,3.2,3.2,0,0,1,.26,1.27h-1.48a2.42,2.42,0,0,0-.15-.87,1.81,1.81,0,0,0-.45-.69,2.12,2.12,0,0,0-.77-.45,3.27,3.27,0,0,0-1.09-.16,3.45,3.45,0,0,0-1,.14,2.07,2.07,0,0,0-.72.38,1.49,1.49,0,0,0-.42.57,1.84,1.84,0,0,0-.14.72,1.41,1.41,0,0,0,.15.64,1.66,1.66,0,0,0,.46.54,3.54,3.54,0,0,0,.81.45,10,10,0,0,0,1.18.4,10.56,10.56,0,0,1,1.64.59,4.48,4.48,0,0,1,1.14.74,2.69,2.69,0,0,1,.67.92,3,3,0,0,1,.22,1.16,2.65,2.65,0,0,1-1.06,2.18,3.72,3.72,0,0,1-1.23.6,5.89,5.89,0,0,1-2.62.11,5,5,0,0,1-1-.29,4.4,4.4,0,0,1-.87-.48,3.38,3.38,0,0,1-.7-.66,2.94,2.94,0,0,1-.47-.84,3,3,0,0,1-.17-1h1.48a1.92,1.92,0,0,0,.83,1.66,2.62,2.62,0,0,0,.87.39,4.18,4.18,0,0,0,1,.13,2.88,2.88,0,0,0,1.78-.48,1.54,1.54,0,0,0,.62-1.29"/><path class="cls-1" d="M91.21,79.26V43.67h11.64a19.78,19.78,0,0,1,4.89.55,9.94,9.94,0,0,1,3.65,1.71,7.53,7.53,0,0,1,2.3,2.95,10.46,10.46,0,0,1,.79,4.28,7.23,7.23,0,0,1-1.42,4.41,9.19,9.19,0,0,1-3.86,3,8.72,8.72,0,0,1,2.65,1.22,8.06,8.06,0,0,1,2,1.91A8.28,8.28,0,0,1,115,66.14a9.8,9.8,0,0,1,.41,2.86,10.86,10.86,0,0,1-.84,4.41,8.84,8.84,0,0,1-2.38,3.23,10.26,10.26,0,0,1-3.72,2,16.6,16.6,0,0,1-4.84.66ZM95.9,58.85H103a9.19,9.19,0,0,0,2.76-.39,6.28,6.28,0,0,0,2.14-1.12,5,5,0,0,0,1.38-1.8,5.72,5.72,0,0,0,.49-2.41A5.07,5.07,0,0,0,108,48.87a8.42,8.42,0,0,0-5.21-1.33H95.9Zm0,3.76V75.43h7.75a9.13,9.13,0,0,0,3-.45,6.32,6.32,0,0,0,2.21-1.27,5.34,5.34,0,0,0,1.38-2,7.06,7.06,0,0,0,.48-2.65,8.57,8.57,0,0,0-.39-2.67,5,5,0,0,0-1.23-2,5.67,5.67,0,0,0-2.14-1.28,9.36,9.36,0,0,0-3.08-.45Z"/><path class="cls-1" d="M147.43,43.67v24.1A12.29,12.29,0,0,1,146.38,73a10.77,10.77,0,0,1-2.82,3.74A11.94,11.94,0,0,1,139.44,79a16.22,16.22,0,0,1-4.94.74,16.62,16.62,0,0,1-5.06-.74,11.43,11.43,0,0,1-4.07-2.24A10.42,10.42,0,0,1,122.66,73a13,13,0,0,1-1-5.26V43.67h4.64v24.1a9.84,9.84,0,0,0,.6,3.6,6.89,6.89,0,0,0,1.67,2.54,6.72,6.72,0,0,0,2.58,1.5,10.75,10.75,0,0,0,3.34.49,10.94,10.94,0,0,0,3.37-.49,6.54,6.54,0,0,0,4.25-4,10,10,0,0,0,.59-3.6V43.67Z"/><path class="cls-1" d="M167.89,64.87h-8.36v14.4h-4.72V43.67h11.78q6,0,9.25,2.74t3.24,8a9.59,9.59,0,0,1-1.8,5.79,10.73,10.73,0,0,1-5,3.69L180.65,79v.29h-5ZM159.53,61h7.21a9.67,9.67,0,0,0,3.34-.52,7,7,0,0,0,2.38-1.42,5.71,5.71,0,0,0,1.43-2.1,7,7,0,0,0,.48-2.6,8.24,8.24,0,0,0-.45-2.8,5.52,5.52,0,0,0-1.41-2.16A6.39,6.39,0,0,0,170.09,48a11.1,11.1,0,0,0-3.5-.49h-7.06Z"/><polygon class="cls-1" points="205.78 62.81 190.36 62.81 190.36 75.43 208.27 75.43 208.27 79.27 185.66 79.27 185.66 43.67 208.03 43.67 208.03 47.54 190.36 47.54 190.36 58.98 205.78 58.98 205.78 62.81"/><path class="cls-1" d="M233.76,70H218.85l-3.35,9.29h-4.84l13.59-35.59h4.11L242,79.26h-4.82Zm-13.49-3.86h12.1l-6.06-16.65Z"/><path class="cls-1" d="M271.41,43.67v24.1A12.31,12.31,0,0,1,270.36,73a10.77,10.77,0,0,1-2.82,3.74A11.94,11.94,0,0,1,263.42,79a16.22,16.22,0,0,1-4.94.74,16.62,16.62,0,0,1-5.06-.74,11.43,11.43,0,0,1-4.07-2.24A10.42,10.42,0,0,1,246.64,73a13,13,0,0,1-1-5.26V43.67h4.64v24.1a9.84,9.84,0,0,0,.6,3.6,6.88,6.88,0,0,0,1.67,2.54,6.73,6.73,0,0,0,2.58,1.5,10.75,10.75,0,0,0,3.34.49,11,11,0,0,0,3.37-.49,6.53,6.53,0,0,0,4.25-4,10,10,0,0,0,.59-3.6V43.67Z"/><polygon class="cls-1" points="184.61 7.13 188.21 17.28 191.78 7.13 195.57 7.13 195.57 21.12 192.67 21.12 192.67 17.3 192.96 10.69 189.19 21.12 187.21 21.12 183.44 10.7 183.73 17.3 183.73 21.12 180.84 21.12 180.84 7.13 184.61 7.13"/><polygon class="cls-1" points="206.51 15.06 200.97 15.06 200.97 18.8 207.47 18.8 207.47 21.12 198.09 21.12 198.09 7.13 207.45 7.13 207.45 9.46 200.97 9.46 200.97 12.8 206.51 12.8 206.51 15.06"/><path class="cls-1" d="M209.16,21.12v-14h4.31a6.74,6.74,0,0,1,2.59.48,5.83,5.83,0,0,1,2,1.36,6.25,6.25,0,0,1,1.31,2.11,7.6,7.6,0,0,1,.47,2.73v.63a7.63,7.63,0,0,1-.46,2.72,6.13,6.13,0,0,1-1.32,2.1,5.87,5.87,0,0,1-2,1.36,6.85,6.85,0,0,1-2.6.48ZM212,9.46v9.34h1.39a3.13,3.13,0,0,0,2.6-1.13,5.09,5.09,0,0,0,.89-3.22V13.8a5.07,5.07,0,0,0-.88-3.23,3.12,3.12,0,0,0-2.59-1.1Z"/><polygon class="cls-1" points="230.37 15.06 224.84 15.06 224.84 18.8 231.33 18.8 231.33 21.12 221.95 21.12 221.95 7.13 231.31 7.13 231.31 9.46 224.84 9.46 224.84 12.8 230.37 12.8 230.37 15.06"/><polygon class="cls-1" points="235.9 18.8 242.02 18.8 242.02 21.12 233.02 21.12 233.02 7.13 235.9 7.13 235.9 18.8"/><polygon class="cls-1" points="246.56 18.8 252.68 18.8 252.68 21.12 243.68 21.12 243.68 7.13 246.56 7.13 246.56 18.8"/><rect class="cls-1" x="254.52" y="7.13" width="2.88" height="13.99"/><polygon class="cls-1" points="271.45 21.12 268.57 21.12 262.96 11.91 262.96 21.12 260.07 21.12 260.07 7.13 262.96 7.13 268.58 16.35 268.58 7.13 271.45 7.13 271.45 21.12"/><path class="cls-1" d="M102.71,19.35A4.71,4.71,0,0,1,102,20a5.14,5.14,0,0,1-1.09.63,7.87,7.87,0,0,1-1.54.49,9.45,9.45,0,0,1-2,.2,6.61,6.61,0,0,1-2.47-.45A5.18,5.18,0,0,1,93,19.55a5.94,5.94,0,0,1-1.23-2.12,8.75,8.75,0,0,1-.44-2.88v-.83a9.21,9.21,0,0,1,.42-2.89A6,6,0,0,1,92.9,8.71a5,5,0,0,1,1.85-1.32,6.23,6.23,0,0,1,2.41-.45,7.28,7.28,0,0,1,2.36.34,4.66,4.66,0,0,1,1.66,1,4.33,4.33,0,0,1,1,1.47,6.38,6.38,0,0,1,.49,1.87H99.91a4.07,4.07,0,0,0-.27-1,2.08,2.08,0,0,0-1.28-1.2,3.37,3.37,0,0,0-1.11-.16A2.56,2.56,0,0,0,95,10.38a5.89,5.89,0,0,0-.77,3.32v.84a5.53,5.53,0,0,0,.84,3.33A2.86,2.86,0,0,0,97.51,19a5.38,5.38,0,0,0,.9-.07,3.76,3.76,0,0,0,.66-.17,2.26,2.26,0,0,0,.46-.22,1.94,1.94,0,0,0,.3-.24V15.89H97.2V13.77h5.51Z"/><path class="cls-1" d="M110.23,16h-2.3v5.12H105v-14h5.2a7.94,7.94,0,0,1,2.17.27,4.53,4.53,0,0,1,1.62.81,3.53,3.53,0,0,1,1,1.32,4.4,4.4,0,0,1,.35,1.83,5,5,0,0,1-.17,1.38,3.68,3.68,0,0,1-.5,1.09,3.6,3.6,0,0,1-.79.83,5,5,0,0,1-1,.61l3,5.72v.13h-3.1Zm-2.3-2.34h2.33a3,3,0,0,0,1-.15,1.91,1.91,0,0,0,.71-.42,1.76,1.76,0,0,0,.43-.65,2.36,2.36,0,0,0,.14-.85A2.11,2.11,0,0,0,112,10a2.34,2.34,0,0,0-1.73-.57h-2.32Z"/><polygon class="cls-1" points="126.03 15.06 120.5 15.06 120.5 18.8 126.99 18.8 126.99 21.12 117.61 21.12 117.61 7.13 126.97 7.13 126.97 9.46 120.5 9.46 120.5 12.8 126.03 12.8 126.03 15.06"/><path class="cls-1" d="M136.58,18.24h-5.06l-1,2.88h-3.07l5.21-14h2.67l5.24,14h-3.07ZM132.3,15.9h3.5L134,10.66Z"/><polygon class="cls-1" points="151.3 9.46 147.01 9.46 147.01 21.12 144.13 21.12 144.13 9.46 139.9 9.46 139.9 7.13 151.3 7.13 151.3 9.46"/><polygon class="cls-1" points="161.36 15.06 155.82 15.06 155.82 18.8 162.32 18.8 162.32 21.12 152.94 21.12 152.94 7.13 162.3 7.13 162.3 9.46 155.82 9.46 155.82 12.8 161.36 12.8 161.36 15.06"/><path class="cls-1" d="M169.2,16h-2.3v5.12H164v-14h5.2a7.94,7.94,0,0,1,2.17.27,4.53,4.53,0,0,1,1.62.81,3.52,3.52,0,0,1,1,1.32,4.4,4.4,0,0,1,.35,1.83,5,5,0,0,1-.17,1.38,3.65,3.65,0,0,1-.5,1.09,3.59,3.59,0,0,1-.79.83,5,5,0,0,1-1,.61l3,5.72v.13h-3.1Zm-2.3-2.34h2.33a3,3,0,0,0,1-.15,1.9,1.9,0,0,0,.71-.42,1.78,1.78,0,0,0,.43-.65,2.38,2.38,0,0,0,.14-.85,2.11,2.11,0,0,0-.56-1.56,2.34,2.34,0,0,0-1.73-.57H166.9Z"/><path class="cls-1" d="M75,45.1a6.41,6.41,0,0,1,6.53-6.28c.18,0,.36,0,.54,0h.18a6,6,0,0,1,2.16.55,7.34,7.34,0,0,1,2.43,1.91,8.15,8.15,0,1,0-5.43,10A6.4,6.4,0,0,1,75,45.1"/><path class="cls-1" d="M83.39,41.27a1.91,1.91,0,0,0-1.49.56c-.64.71-.52,1.83-1,2.65a2.13,2.13,0,0,1-2.11.93,2,2,0,0,1-1.18-.67,2.17,2.17,0,0,1-.47-1,3.56,3.56,0,0,1,0-.45,7.7,7.7,0,0,1,.08-.9,4.25,4.25,0,0,1,.54-1.34,4.73,4.73,0,0,1,2.17-1.87,5.67,5.67,0,0,1,4.56.17,7.32,7.32,0,0,1,2.43,1.91,8.16,8.16,0,1,0,.3,2.8c0-1.69-3.24-2.83-3.79-2.86"/><path class="cls-1" d="M83.39,41.27a1.91,1.91,0,0,0-1.49.56c-.64.71-.52,1.83-1,2.65a2.13,2.13,0,0,1-2.11.93,1.87,1.87,0,0,1-.46-.14A6.7,6.7,0,0,0,87,45.18a8.16,8.16,0,0,0,.15-1.05c0-1.69-3.24-2.83-3.79-2.86"/><path class="cls-1" d="M78.32,45.27a2,2,0,0,1-1.19-1.48,3.44,3.44,0,0,1,0-.45,7.72,7.72,0,0,1,.08-.9,4.22,4.22,0,0,1,.54-1.34,4.72,4.72,0,0,1,2.17-1.87,5.27,5.27,0,0,1,2.4-.38,7,7,0,0,0-.73,0,6.28,6.28,0,1,0-.11,12.56A8.12,8.12,0,0,0,87,45.18a6.69,6.69,0,0,1-8.71.09"/><path class="cls-1" d="M12.15,42.08a6.41,6.41,0,0,1-6.53,6.28c-.18,0-.36,0-.54,0H4.9a6,6,0,0,1-2.16-.55A7.33,7.33,0,0,1,.3,45.85a8.15,8.15,0,1,0,5.43-10,6.4,6.4,0,0,1,6.42,6.27"/><path class="cls-1" d="M3.79,45.91a1.91,1.91,0,0,0,1.49-.56c.64-.71.52-1.83,1-2.65a2.13,2.13,0,0,1,2.11-.93,2,2,0,0,1,1.18.67,2.15,2.15,0,0,1,.47,1,3.54,3.54,0,0,1,0,.45,7.74,7.74,0,0,1-.08.9,4.23,4.23,0,0,1-.54,1.34,4.76,4.76,0,0,1-2.17,1.87,5.66,5.66,0,0,1-4.56-.17A7.31,7.31,0,0,1,.3,45.85a8.17,8.17,0,1,0-.3-2.8c0,1.69,3.24,2.83,3.79,2.85"/><path class="cls-1" d="M3.79,45.91a1.91,1.91,0,0,0,1.49-.56c.64-.71.52-1.83,1-2.65a2.13,2.13,0,0,1,2.11-.93,1.83,1.83,0,0,1,.46.14A6.7,6.7,0,0,0,.14,42,7.92,7.92,0,0,0,0,43.05c0,1.69,3.24,2.83,3.79,2.85"/><path class="cls-1" d="M8.86,41.91A2,2,0,0,1,10,43.38a3.42,3.42,0,0,1,0,.45,8,8,0,0,1-.08.9,4.21,4.21,0,0,1-.54,1.34A4.74,4.74,0,0,1,7.3,47.94a5.25,5.25,0,0,1-2.4.38,7,7,0,0,0,.73,0A6.28,6.28,0,1,0,5.73,35.8,8.11,8.11,0,0,0,.15,42a6.7,6.7,0,0,1,8.72-.1"/><path class="cls-1" d="M45.1,12.15a6.41,6.41,0,0,1-6.28-6.53c0-.18,0-.36,0-.54s0-.12,0-.18h0a6,6,0,0,1,.56-2.16A7.33,7.33,0,0,1,41.33.3a8.15,8.15,0,1,0,10,5.43,6.4,6.4,0,0,1-6.27,6.42"/><path class="cls-1" d="M41.27,3.79a1.91,1.91,0,0,0,.56,1.49c.71.64,1.83.52,2.65,1a2.13,2.13,0,0,1,.93,2.11,2,2,0,0,1-.67,1.17,2.15,2.15,0,0,1-1,.47,3.54,3.54,0,0,1-.45,0,7.73,7.73,0,0,1-.9-.08,4.26,4.26,0,0,1-1.34-.54A4.75,4.75,0,0,1,39.24,7.3a5.67,5.67,0,0,1,.17-4.56A7.29,7.29,0,0,1,41.32.3a8.16,8.16,0,1,0,2.8-.3c-1.69,0-2.83,3.24-2.85,3.79"/><path class="cls-1" d="M41.27,3.79a1.91,1.91,0,0,0,.56,1.49c.71.64,1.83.52,2.65,1a2.13,2.13,0,0,1,.93,2.11,1.83,1.83,0,0,1-.14.46A6.7,6.7,0,0,0,45.18.15,8.1,8.1,0,0,0,44.13,0c-1.69,0-2.83,3.24-2.85,3.79"/><path class="cls-1" d="M45.27,8.86A2,2,0,0,1,43.79,10a3.54,3.54,0,0,1-.45,0,7.74,7.74,0,0,1-.9-.08,4.23,4.23,0,0,1-1.34-.54,4.73,4.73,0,0,1-1.87-2.17,5.26,5.26,0,0,1-.38-2.4,7,7,0,0,0,0,.73,6.28,6.28,0,1,0,12.56.11A8.11,8.11,0,0,0,45.18.14a6.7,6.7,0,0,1,.1,8.72"/><path class="cls-1" d="M42.08,75a6.41,6.41,0,0,1,6.28,6.53c0,.18,0,.36,0,.54s0,.12,0,.18h0a6,6,0,0,1-.56,2.16,7.33,7.33,0,0,1-1.91,2.43,8.15,8.15,0,1,0-10-5.43A6.4,6.4,0,0,1,42.08,75"/><path class="cls-1" d="M45.91,83.39a1.91,1.91,0,0,0-.56-1.49c-.71-.64-1.83-.52-2.65-1a2.13,2.13,0,0,1-.93-2.11,2,2,0,0,1,.67-1.17,2.14,2.14,0,0,1,1-.47,3.42,3.42,0,0,1,.45,0,7.72,7.72,0,0,1,.9.08,4.22,4.22,0,0,1,1.34.54,4.75,4.75,0,0,1,1.1.94,4.67,4.67,0,0,1,.76,1.23,5.66,5.66,0,0,1-.17,4.56,7.31,7.31,0,0,1-1.91,2.43,8.16,8.16,0,1,0-2.8.3c1.69,0,2.83-3.24,2.86-3.79"/><path class="cls-1" d="M45.91,83.39a1.91,1.91,0,0,0-.56-1.49c-.71-.64-1.83-.52-2.65-1a2.13,2.13,0,0,1-.93-2.11,1.8,1.8,0,0,1,.15-.46A6.7,6.7,0,0,0,42,87a8,8,0,0,0,1.05.14c1.69,0,2.83-3.24,2.86-3.79"/><path class="cls-1" d="M41.91,78.32a2,2,0,0,1,1.48-1.19,3.42,3.42,0,0,1,.45,0,7.93,7.93,0,0,1,.9.08,4.2,4.2,0,0,1,1.34.54,4.72,4.72,0,0,1,1.11.94,4.67,4.67,0,0,1,.76,1.23,5.27,5.27,0,0,1,.38,2.4,7,7,0,0,0,0-.73,6.28,6.28,0,1,0-12.56-.11A8.12,8.12,0,0,0,42,87a6.69,6.69,0,0,1-.09-8.72"/><path class="cls-1" d="M26.93,14.88c-3.12.38-5.39,2.79-5.07,5.37s3.11,4.35,6.23,4,20.74-1.32,28,17.7c0-20.47-18-28.39-29.19-27"/><path class="cls-1" d="M15.46,59.67c.38,3.12,2.79,5.39,5.37,5.07s4.35-3.11,4-6.23-1.32-20.73,17.7-28c-20.47,0-28.39,18-27,29.19"/><path class="cls-1" d="M60.25,71.14c3.12-.38,5.39-2.79,5.07-5.37s-3.11-4.35-6.23-4-20.73,1.32-28-17.7c0,20.47,18,28.39,29.19,27"/><path class="cls-1" d="M71.72,26.35c-.38-3.12-2.79-5.39-5.37-5.07s-4.35,3.11-4,6.23,1.32,20.74-17.7,28c20.47,0,28.39-18,27-29.19"/><path class="cls-1" d="M56.12,41.91c0-.35,0-1,0-1.39A29.43,29.43,0,0,0,55,33.59a16.14,16.14,0,0,0-20.58-9.25c6.65.85,16.58,4.73,21.66,17.57"/><path class="cls-1" d="M42.49,30.49c-.36,0-1,0-1.39,0a29.42,29.42,0,0,0-6.94,1.08,16.14,16.14,0,0,0-9.25,20.58c.85-6.65,4.73-16.58,17.57-21.66"/><path class="cls-1" d="M31.07,44.12c0,.35,0,1,0,1.39a29.47,29.47,0,0,0,1.08,6.94,16.14,16.14,0,0,0,20.58,9.25C46.08,60.84,36.15,57,31.07,44.12"/><path class="cls-1" d="M44.7,55.54c.35,0,1,0,1.39,0A29.47,29.47,0,0,0,53,54.46a16.14,16.14,0,0,0,9.25-20.58c-.85,6.65-4.73,16.58-17.57,21.66"/></g></g></svg>