<svg xmlns="http://www.w3.org/2000/svg" viewBox="0 0 130.74 130.76"><defs><style>.cls-1{fill:silver;}.cls-2{fill:#d0d0d0;}.cls-3{fill:#fefefe;}.cls-4{fill:#272727;}.cls-5{fill:#bababa;}.cls-6{fill:#262626;}.cls-7{fill:#2a2a2a;}.cls-8{fill:#292929;}.cls-9{fill:#bbb;}.cls-10{fill:#fdfdfd;}</style></defs><title>codeorg</title><g id="Capa_2" data-name="Capa 2"><g id="Capa_1-2" data-name="Capa 1"><path class="cls-1" d="M68.43,130.76H62.2a1.34,1.34,0,0,0-.32-.1,66.26,66.26,0,0,1-8.54-1,63.8,63.8,0,0,1-16.53-5.46,65.09,65.09,0,0,1-23.44-19.25,64.57,64.57,0,0,1-12.93-32A62.78,62.78,0,0,1,.07,62.47a67.41,67.41,0,0,1,1.16-9.72,64.21,64.21,0,0,1,5.38-16A65.81,65.81,0,0,1,35.84,7.06,65.23,65.23,0,0,1,112.75,20.4a65.16,65.16,0,0,1,17.89,41.76,1.77,1.77,0,0,0,.1.38v1.25a.88.88,0,0,0-.1.27q0,1.34,0,2.67a.86.86,0,0,0,.1.27v1.35a1.65,1.65,0,0,0-.1.37,65,65,0,0,1-7.19,26.6,65.8,65.8,0,0,1-31.7,29.86,64.46,64.46,0,0,1-23,5.48,1.33,1.33,0,0,0-.32.1m33.23-65.39a36.31,36.31,0,1,0-36.87,36.32,36.29,36.29,0,0,0,36.87-36.32"/><path class="cls-2" d="M130.74,67a.87.87,0,0,1-.1-.27q0-1.34,0-2.67a.91.91,0,0,1,.1-.27Z"/><path class="cls-3" d="M101.66,65.37A36.31,36.31,0,1,1,65.41,29.05a36.36,36.36,0,0,1,36.25,36.31M63.21,58.15V71l.28,0c1.73,0,3.46,0,5.19,0A8,8,0,0,0,70,70.94a5.2,5.2,0,0,0,4.24-3.45,8.81,8.81,0,0,0,.41-4.29,5.36,5.36,0,0,0-4.49-4.83,17,17,0,0,0-3.36-.21Zm-1.3,16V87h3.22v-4.6c.57,0,1.1,0,1.63,0a.55.55,0,0,1,.57.34c.52,1,1.07,1.94,1.61,2.91L69.7,87l1.6,0h2l-3-5.15.72-.33a3,3,0,0,0,1.69-1.87,4.56,4.56,0,0,0-.33-3.57,3.68,3.68,0,0,0-3.34-1.95c-2.33-.07-4.67,0-7,0a.64.64,0,0,0-.16,0M48.49,64.57c0,.16,0,.31,0,.47.17,3.24,2.16,6.11,5.84,6.39a6.18,6.18,0,0,0,5-1.65,7.48,7.48,0,0,0,.77-9.47,6,6,0,0,0-5.48-2.55,5.82,5.82,0,0,0-5.12,2.91,7.15,7.15,0,0,0-1,3.91m5.32,9.13a6,6,0,0,0-5.94,3.54,7.64,7.64,0,0,0-.61,4.55,6.32,6.32,0,0,0,3,4.77,6.67,6.67,0,0,0,4.66.71,5.74,5.74,0,0,0,3.91-2.57A7.25,7.25,0,0,0,60,79.46a6.26,6.26,0,0,0-6.21-5.76M63,42.2V55.08h3.28V49.67h4.68v5.41h3.22V42.21H70.88v4.6H66.21V42.2ZM86.2,79.39H81.33V82h2.21c0,.64,0,1.21,0,1.77s0,.61-.58.74a6.75,6.75,0,0,1-2.62.14,3.57,3.57,0,0,1-3-2.55,4.79,4.79,0,0,1-.17-2.41,3.6,3.6,0,0,1,2.55-3.11,3.45,3.45,0,0,1,3.95,1.06s.06,0,.14.06L86,76.33A5.23,5.23,0,0,0,82.76,74a10,10,0,0,0-2.21-.19,6.26,6.26,0,0,0-6.12,5A7.9,7.9,0,0,0,74.36,82a6.12,6.12,0,0,0,4.15,5,8.73,8.73,0,0,0,4,.3,7.18,7.18,0,0,0,3.25-1.13.89.89,0,0,0,.45-.84c0-1.82,0-3.63,0-5.45Zm-.47-29.91V47H79.87V44.7h6.28V42.21H76.62V55.08h9.53V52.54H79.88V49.48Zm-5.85,19V65.45h5.8V63H79.86V60.66h6.29V58.19H76.6V71h9.55V68.51ZM45.45,66.8c-.14.22-.26.38-.37.56a2.89,2.89,0,0,1-5-.15,5.17,5.17,0,0,1,0-5.34,2.87,2.87,0,0,1,5.07.15l.21.36,2.37-1.17c-.18-.32-.33-.63-.51-.92a5,5,0,0,0-.57-.73A6,6,0,0,0,37.09,61a8.05,8.05,0,0,0-.68,5.39,6.31,6.31,0,0,0,1.91,3.54,6,6,0,0,0,9.33-1.53,3.51,3.51,0,0,0,.18-.39L45.45,66.8m16-22V42.2h-9.9v2.58h3.33V55.07h3.27V44.76ZM46.33,84h-2.9v3h2.9Z"/><path class="cls-4" d="M63.21,58.15h3.61a17,17,0,0,1,3.36.21,5.36,5.36,0,0,1,4.49,4.83,8.8,8.8,0,0,1-.41,4.29A5.2,5.2,0,0,1,70,70.94a8,8,0,0,1-1.34.12c-1.73,0-3.46,0-5.19,0l-.28,0ZM66.48,68.5c.88-.06,1.75,0,2.59-.19a2.68,2.68,0,0,0,2.27-2.19,6.29,6.29,0,0,0,.08-2.68,2.81,2.81,0,0,0-1.88-2.34,9.81,9.81,0,0,0-3.07-.2Z"/><path class="cls-5" d="M61.91,74.17a.69.69,0,0,1,.16,0c2.34,0,4.67,0,7,0a3.68,3.68,0,0,1,3.34,1.95,4.56,4.56,0,0,1,.33,3.57,3,3,0,0,1-1.69,1.87l-.72.33,3,5.15h-2l-1.6,0-.77-1.35c-.54-1-1.08-1.93-1.61-2.9a.55.55,0,0,0-.57-.34c-.53,0-1.06,0-1.63,0V87H61.91Zm3.25,2.38V80H67.8a1.68,1.68,0,0,0,1.89-2.05,1.36,1.36,0,0,0-1.34-1.38c-1,0-2.1,0-3.19,0"/><path class="cls-4" d="M48.49,64.57a7.15,7.15,0,0,1,1-3.91,5.82,5.82,0,0,1,5.12-2.91,6,6,0,0,1,5.48,2.55,7.48,7.48,0,0,1-.77,9.47,6.18,6.18,0,0,1-5,1.65c-3.68-.27-5.67-3.14-5.84-6.39,0-.16,0-.31,0-.47m9.67.11a5.39,5.39,0,0,0-.48-2.41,2.92,2.92,0,0,0-2.74-1.8,2.78,2.78,0,0,0-2.72,1.71,5.4,5.4,0,0,0,0,4.76,2.8,2.8,0,0,0,2.66,1.74A3,3,0,0,0,57.67,67a4.6,4.6,0,0,0,.49-2.31"/><path class="cls-5" d="M53.81,73.7A6.26,6.26,0,0,1,60,79.46a7.25,7.25,0,0,1-1.14,5.24A5.74,5.74,0,0,1,55,87.27a6.67,6.67,0,0,1-4.66-.71,6.32,6.32,0,0,1-3-4.77,7.64,7.64,0,0,1,.61-4.55,6,6,0,0,1,5.94-3.54m-3.45,6.58a5.65,5.65,0,0,0,.45,2.5,3,3,0,0,0,5.67-.13,5.55,5.55,0,0,0-.15-4.48,2.86,2.86,0,0,0-2.63-1.73A2.83,2.83,0,0,0,50.94,78a4.77,4.77,0,0,0-.58,2.27"/><polygon class="cls-6" points="62.96 42.2 66.22 42.2 66.22 46.81 70.88 46.81 70.88 42.21 74.14 42.21 74.14 55.09 70.92 55.09 70.92 49.67 66.24 49.67 66.24 55.08 62.96 55.08 62.96 42.2"/><path class="cls-5" d="M86.2,79.39v.49c0,1.82,0,3.63,0,5.45a.89.89,0,0,1-.45.84,7.17,7.17,0,0,1-3.25,1.13,8.71,8.71,0,0,1-4-.3,6.12,6.12,0,0,1-4.15-5,7.89,7.89,0,0,1,.07-3.19,6.26,6.26,0,0,1,6.12-5,10,10,0,0,1,2.21.19A5.23,5.23,0,0,1,86,76.33l-2.22,1.4c-.07,0-.12,0-.14-.06a3.45,3.45,0,0,0-3.95-1.06,3.6,3.6,0,0,0-2.55,3.11,4.79,4.79,0,0,0,.17,2.41,3.57,3.57,0,0,0,3,2.55A6.74,6.74,0,0,0,83,84.54c.54-.13.58-.2.58-.74s0-1.13,0-1.77H81.33V79.39Z"/><polygon class="cls-7" points="85.73 49.48 79.88 49.48 79.88 52.54 86.14 52.54 86.14 55.08 76.62 55.08 76.62 42.21 86.15 42.21 86.15 44.7 79.87 44.7 79.87 47.02 85.73 47.02 85.73 49.48"/><polygon class="cls-8" points="79.88 68.51 86.16 68.51 86.16 71.03 76.61 71.03 76.61 58.19 86.15 58.19 86.15 60.66 79.86 60.66 79.86 62.97 85.69 62.97 85.69 65.45 79.88 65.45 79.88 68.51"/><path class="cls-4" d="M45.45,66.8,47.81,68a3.72,3.72,0,0,1-.18.39,6,6,0,0,1-9.33,1.53,6.31,6.31,0,0,1-1.91-3.54A8.05,8.05,0,0,1,37.09,61a6,6,0,0,1,9.61-1.45,5.06,5.06,0,0,1,.57.74c.19.29.33.6.51.92l-2.37,1.17L45.19,62a2.87,2.87,0,0,0-5.07-.15,5.17,5.17,0,0,0,0,5.34,2.89,2.89,0,0,0,5,.15c.11-.17.23-.34.37-.56"/><polygon class="cls-4" points="61.49 44.76 58.19 44.76 58.19 55.07 54.92 55.07 54.92 44.78 51.59 44.78 51.59 42.2 61.49 42.2 61.49 44.76"/><rect class="cls-9" x="43.43" y="83.98" width="2.9" height="3.01"/><path class="cls-10" d="M66.48,68.5V60.9a9.81,9.81,0,0,1,3.07.2,2.81,2.81,0,0,1,1.88,2.34,6.29,6.29,0,0,1-.08,2.68,2.68,2.68,0,0,1-2.27,2.19c-.84.14-1.71.13-2.59.19"/><path class="cls-10" d="M65.16,76.56c1.09,0,2.14,0,3.19,0a1.36,1.36,0,0,1,1.34,1.38A1.68,1.68,0,0,1,67.8,80H65.16Z"/><path class="cls-10" d="M58.17,64.67A4.6,4.6,0,0,1,57.67,67a3,3,0,0,1-2.81,1.69,2.8,2.8,0,0,1-2.66-1.74,5.4,5.4,0,0,1,0-4.76,2.78,2.78,0,0,1,2.72-1.71,2.92,2.92,0,0,1,2.74,1.8,5.39,5.39,0,0,1,.48,2.41"/><path class="cls-3" d="M50.36,80.28A4.77,4.77,0,0,1,50.94,78a2.83,2.83,0,0,1,2.76-1.58,2.86,2.86,0,0,1,2.63,1.73,5.55,5.55,0,0,1,.15,4.48,3,3,0,0,1-5.67.13,5.65,5.65,0,0,1-.45-2.5"/></g></g></svg>