<svg xmlns="http://www.w3.org/2000/svg" viewBox="0 0 282.44 79.62"><defs><style>.cls-1{fill:#5c5c5c;}.cls-2{fill:#959595;}.cls-3{fill:#bbb;}.cls-4{fill:#e8e8e8;}.cls-5{fill:#919191;}</style></defs><title>cotelco</title><g id="Capa_2" data-name="Capa 2"><g id="Capa_1-2" data-name="Capa 1"><polygon class="cls-1" points="25.98 70.36 14.86 67.95 5.15 60.32 0.19 49.71 0 37.77 4.66 28 14.42 19.69 25.71 17.14 37.55 19.69 46.44 26.92 51.97 37.77 51.82 49.71 46.82 60.32 37.48 67.95 25.98 70.36"/><polygon class="cls-2" points="25.98 23.45 37.55 19.69 41.82 31.07 51.97 37.77 45.73 48.21 46.82 60.32 34.77 61.95 25.98 70.36 17.2 61.95 5.15 60.32 6.24 48.21 0 37.77 10.15 31.07 14.42 19.69 25.98 23.45"/><polygon class="cls-3" points="32.59 29.79 41.75 31.04 40.91 40.25 45.65 48.19 37.93 53.27 34.67 61.93 25.88 59.06 17.08 61.91 13.84 53.25 6.13 48.15 10.88 40.22 10.06 31.01 19.23 29.78 25.91 23.39 32.59 29.79"/><polygon class="cls-4" points="10.88 40.22 19.23 29.78 32.59 29.79 40.91 40.25 37.93 53.27 25.88 59.06 13.84 53.25 10.88 40.22"/><path class="cls-5" d="M81.54,59.28q-8.51,0-13.45-4.91T63.14,38.89q0-7.33,2.46-11.91a15.45,15.45,0,0,1,6.78-6.74,21.87,21.87,0,0,1,9.9-2.16,27.75,27.75,0,0,1,6.64.73,24.43,24.43,0,0,1,5,1.76l-2.71,7.26q-2.35-.88-4.62-1.5a16.44,16.44,0,0,0-4.33-.62q-9.68,0-9.68,13.12,0,6.38,2.46,9.6a8.35,8.35,0,0,0,7.08,3.23,19.91,19.91,0,0,0,5.9-.81,21.38,21.38,0,0,0,4.88-2.2v8a16.63,16.63,0,0,1-4.91,2,28.62,28.62,0,0,1-6.45.62"/><path class="cls-5" d="M132.44,38.6q0,9.9-5.13,15.29t-13.93,5.39a19.22,19.22,0,0,1-9.68-2.42,16.89,16.89,0,0,1-6.67-7A23.92,23.92,0,0,1,94.61,38.6q0-9.9,5.1-15.21t13.89-5.31a19.63,19.63,0,0,1,9.75,2.38,16.71,16.71,0,0,1,6.67,7,23.71,23.71,0,0,1,2.42,11.18m-28.37,0q0,6.31,2.23,9.75t7.22,3.45q4.91,0,7.18-3.45T123,38.6q0-6.3-2.27-9.68t-7.26-3.37q-5,0-7.18,3.37t-2.2,9.68"/><path class="cls-2" d="M152.77,52.16a17,17,0,0,0,3.33-.33,29.11,29.11,0,0,0,3-.77V58a14.77,14.77,0,0,1-3.81,1.17,26.66,26.66,0,0,1-4.91.44,16.56,16.56,0,0,1-6.2-1.1,8.71,8.71,0,0,1-4.36-3.89,15.78,15.78,0,0,1-1.61-7.85V26.06H132.9V19.15l5.87-.34,1.35-9.27L147.49,7V19.1h11.29v7H147.49v20.6a5.31,5.31,0,0,0,1.5,4.14,5.42,5.42,0,0,0,3.78,1.35"/><path class="cls-2" d="M177.49,18.36q8,0,12.65,4.77t4.66,13.27v4.69H168.55q.15,5.43,3,8.39a10.48,10.48,0,0,0,7.92,3,28.48,28.48,0,0,0,6.89-.77,37,37,0,0,0,6.3-2.24v7.41a27.13,27.13,0,0,1-6.08,2.05,37.46,37.46,0,0,1-7.55.66,22.8,22.8,0,0,1-10.34-2.24,16.2,16.2,0,0,1-7-6.74,22.92,22.92,0,0,1-2.53-11.33q0-10.19,5-15.54t13.31-5.35m0,6.82a8,8,0,0,0-6,2.38q-2.31,2.38-2.68,7.07h17.08a11.31,11.31,0,0,0-2.09-6.78q-2-2.67-6.27-2.68"/><rect class="cls-2" x="198.96" width="9.24" height="58.83"/><path class="cls-2" d="M230.26,59.57q-8.51,0-13.45-4.91t-4.95-15.47q0-7.33,2.46-11.91a15.45,15.45,0,0,1,6.78-6.74,21.85,21.85,0,0,1,9.9-2.16,27.76,27.76,0,0,1,6.64.73,24.42,24.42,0,0,1,5,1.76l-2.71,7.26q-2.35-.88-4.62-1.5A16.4,16.4,0,0,0,231,26q-9.68,0-9.68,13.12,0,6.38,2.46,9.6a8.35,8.35,0,0,0,7.08,3.23,19.91,19.91,0,0,0,5.9-.81,21.38,21.38,0,0,0,4.88-2.2v8a16.57,16.57,0,0,1-4.91,2,28.56,28.56,0,0,1-6.45.62"/><path class="cls-2" d="M282.44,38.89q0,9.9-5.13,15.29t-13.93,5.39a19.23,19.23,0,0,1-9.68-2.42,16.89,16.89,0,0,1-6.67-7,23.93,23.93,0,0,1-2.42-11.22q0-9.9,5.1-15.21t13.89-5.32a19.64,19.64,0,0,1,9.75,2.38,16.72,16.72,0,0,1,6.67,7,23.71,23.71,0,0,1,2.42,11.18m-28.37,0q0,6.31,2.23,9.75t7.22,3.45q4.91,0,7.18-3.45T273,38.89q0-6.3-2.27-9.68t-7.26-3.37q-5,0-7.18,3.37t-2.2,9.68"/><path class="cls-1" d="M59.71,77.24l3.11-8.1H64l3.32,8.1H66.07l-.95-2.45H61.74l-.89,2.45ZM62,73.91h2.75l-.85-2.24q-.39-1-.57-1.68a10.32,10.32,0,0,1-.44,1.55Z"/><path class="cls-1" d="M67.63,75.49l1-.15a1.37,1.37,0,0,0,.46.91,1.61,1.61,0,0,0,1.06.32,1.55,1.55,0,0,0,1-.28.83.83,0,0,0,.33-.65.6.6,0,0,0-.29-.53,4.29,4.29,0,0,0-1-.34,9.22,9.22,0,0,1-1.52-.48,1.45,1.45,0,0,1-.86-1.35A1.51,1.51,0,0,1,68,72.2a1.6,1.6,0,0,1,.49-.56,2.06,2.06,0,0,1,.63-.29,3,3,0,0,1,.86-.12,3.39,3.39,0,0,1,1.21.2,1.64,1.64,0,0,1,.77.54,2.11,2.11,0,0,1,.34.91l-1,.13a1.06,1.06,0,0,0-.38-.71,1.4,1.4,0,0,0-.9-.26,1.63,1.63,0,0,0-1,.23.66.66,0,0,0-.29.53.55.55,0,0,0,.12.35.88.88,0,0,0,.38.27l.88.25a12.18,12.18,0,0,1,1.47.46,1.49,1.49,0,0,1,.66.52,1.47,1.47,0,0,1,.24.85,1.68,1.68,0,0,1-.29.94,1.88,1.88,0,0,1-.84.68,3,3,0,0,1-1.24.24,2.76,2.76,0,0,1-1.74-.47,2.21,2.21,0,0,1-.76-1.41"/><path class="cls-1" d="M73.31,74.3a3,3,0,0,1,.91-2.41,2.73,2.73,0,0,1,1.85-.65A2.63,2.63,0,0,1,78,72a3,3,0,0,1,.77,2.19A3.88,3.88,0,0,1,78.47,76a2.4,2.4,0,0,1-1,1,2.87,2.87,0,0,1-1.42.36,2.64,2.64,0,0,1-2-.79,3.15,3.15,0,0,1-.76-2.28m1,0A2.5,2.5,0,0,0,74.82,76a1.64,1.64,0,0,0,2.47,0,2.56,2.56,0,0,0,.49-1.72,2.43,2.43,0,0,0-.49-1.65,1.64,1.64,0,0,0-2.47,0,2.49,2.49,0,0,0-.49,1.69"/><path class="cls-1" d="M83.8,75.09l1,.13A2.54,2.54,0,0,1,84,76.8a2.39,2.39,0,0,1-1.62.57,2.51,2.51,0,0,1-1.94-.79,3.19,3.19,0,0,1-.73-2.26A4.08,4.08,0,0,1,80,72.66a2.2,2.2,0,0,1,1-1.07,2.84,2.84,0,0,1,1.4-.36,2.43,2.43,0,0,1,1.56.48,2.21,2.21,0,0,1,.78,1.37l-1,.15a1.61,1.61,0,0,0-.49-.89,1.26,1.26,0,0,0-.85-.3,1.54,1.54,0,0,0-1.22.54,2.56,2.56,0,0,0-.47,1.71A2.64,2.64,0,0,0,81.15,76a1.47,1.47,0,0,0,1.18.54,1.39,1.39,0,0,0,1-.36,1.78,1.78,0,0,0,.5-1.11"/><path class="cls-1" d="M85.64,69.14h1v1.14h-1Zm0,2.23h1v5.87h-1Z"/><path class="cls-1" d="M92,76.52a3.71,3.71,0,0,1-1.06.66,3.07,3.07,0,0,1-1.1.19,2.13,2.13,0,0,1-1.49-.47,1.56,1.56,0,0,1-.52-1.21,1.6,1.6,0,0,1,.2-.79,1.62,1.62,0,0,1,.51-.57,2.44,2.44,0,0,1,.72-.33,7,7,0,0,1,.88-.15,9,9,0,0,0,1.77-.34c0-.14,0-.22,0-.26a1.1,1.1,0,0,0-.28-.86,1.66,1.66,0,0,0-1.13-.34,1.75,1.75,0,0,0-1,.25,1.5,1.5,0,0,0-.49.87L88,73a2.41,2.41,0,0,1,.43-1,1.93,1.93,0,0,1,.88-.59,3.92,3.92,0,0,1,1.33-.21,3.54,3.54,0,0,1,1.22.18,1.39,1.39,0,0,1,1,1.12,5.64,5.64,0,0,1,0,.92v1.33A14.21,14.21,0,0,0,93,76.53a2.2,2.2,0,0,0,.25.7h-1a2.1,2.1,0,0,1-.2-.72m-.08-2.22a7.37,7.37,0,0,1-1.62.38,3.78,3.78,0,0,0-.87.2.87.87,0,0,0-.39.32.88.88,0,0,0,.16,1.14,1.29,1.29,0,0,0,.88.27,2.06,2.06,0,0,0,1-.25,1.56,1.56,0,0,0,.66-.69,2.41,2.41,0,0,0,.16-1Z"/><path class="cls-1" d="M98.27,75.09l1,.13a2.54,2.54,0,0,1-.82,1.58,2.39,2.39,0,0,1-1.62.57,2.51,2.51,0,0,1-1.94-.79,3.19,3.19,0,0,1-.73-2.26,4.1,4.1,0,0,1,.32-1.66,2.2,2.2,0,0,1,1-1.07,2.84,2.84,0,0,1,1.4-.36,2.43,2.43,0,0,1,1.56.48,2.21,2.21,0,0,1,.78,1.37l-1,.15a1.6,1.6,0,0,0-.49-.89,1.26,1.26,0,0,0-.85-.3,1.55,1.55,0,0,0-1.22.54,2.56,2.56,0,0,0-.47,1.71A2.64,2.64,0,0,0,95.61,76a1.47,1.47,0,0,0,1.18.54,1.39,1.39,0,0,0,1-.36,1.77,1.77,0,0,0,.5-1.11"/><path class="cls-1" d="M100.11,69.14h1v1.14h-1Zm0,2.23h1v5.87h-1Z"/><path class="cls-1" d="M102.25,74.31a3,3,0,0,1,.91-2.42,2.73,2.73,0,0,1,1.85-.65,2.63,2.63,0,0,1,2,.79,3,3,0,0,1,.77,2.19A3.87,3.87,0,0,1,107.4,76a2.4,2.4,0,0,1-1,1,2.88,2.88,0,0,1-1.42.36,2.63,2.63,0,0,1-2-.79,3.15,3.15,0,0,1-.76-2.28m1,0a2.5,2.5,0,0,0,.49,1.69,1.64,1.64,0,0,0,2.47,0,2.56,2.56,0,0,0,.49-1.72,2.43,2.43,0,0,0-.49-1.65,1.64,1.64,0,0,0-2.47,0,2.49,2.49,0,0,0-.49,1.69m1.18-3.67.73-1.55h1.3l-1.22,1.55Z"/><path class="cls-1" d="M108.91,77.24V71.37h.9v.83a2.11,2.11,0,0,1,1.87-1,2.47,2.47,0,0,1,1,.19,1.53,1.53,0,0,1,.67.5,1.92,1.92,0,0,1,.31.74,5.76,5.76,0,0,1,.06,1v3.61h-1V73.67a2.68,2.68,0,0,0-.11-.91,1,1,0,0,0-.41-.48,1.31,1.31,0,0,0-.69-.18,1.61,1.61,0,0,0-1.1.4A2,2,0,0,0,109.9,74v3.2Z"/><polygon class="cls-1" points="118.51 77.24 118.51 69.14 119.58 69.14 119.58 72.47 123.79 72.47 123.79 69.14 124.86 69.14 124.86 77.24 123.79 77.24 123.79 73.42 119.58 73.42 119.58 77.24 118.51 77.24"/><path class="cls-1" d="M126.15,74.3a3,3,0,0,1,.91-2.41,2.73,2.73,0,0,1,1.84-.65,2.63,2.63,0,0,1,2,.79,3,3,0,0,1,.77,2.19,3.87,3.87,0,0,1-.34,1.78,2.4,2.4,0,0,1-1,1,2.87,2.87,0,0,1-1.42.36,2.64,2.64,0,0,1-2-.79,3.15,3.15,0,0,1-.76-2.28m1,0a2.5,2.5,0,0,0,.49,1.69,1.64,1.64,0,0,0,2.47,0,2.57,2.57,0,0,0,.49-1.72,2.43,2.43,0,0,0-.49-1.65,1.64,1.64,0,0,0-2.47,0,2.49,2.49,0,0,0-.49,1.69"/><path class="cls-1" d="M135,76.35l.14.88a3.78,3.78,0,0,1-.75.09,1.7,1.7,0,0,1-.84-.17,1,1,0,0,1-.42-.45,3.53,3.53,0,0,1-.12-1.17V72.14h-.73v-.77H133V69.92l1-.6v2.05h1v.77h-1v3.43a1.72,1.72,0,0,0,.05.55.41.41,0,0,0,.17.19.65.65,0,0,0,.34.07l.44,0"/><path class="cls-1" d="M140,75.35l1,.13a2.51,2.51,0,0,1-.9,1.4,3.05,3.05,0,0,1-3.72-.3,3.1,3.1,0,0,1-.76-2.22,3.25,3.25,0,0,1,.76-2.3,2.59,2.59,0,0,1,2-.82,2.51,2.51,0,0,1,1.92.8,3.18,3.18,0,0,1,.75,2.25c0,.06,0,.15,0,.27h-4.38A2.25,2.25,0,0,0,137.2,76a1.63,1.63,0,0,0,1.23.51,1.51,1.51,0,0,0,.93-.29,1.91,1.91,0,0,0,.61-.92m-3.27-1.61H140a2,2,0,0,0-.38-1.11,1.52,1.52,0,0,0-1.23-.58,1.58,1.58,0,0,0-1.15.46,1.82,1.82,0,0,0-.52,1.23"/><rect class="cls-1" x="142.23" y="69.14" width="0.99" height="8.1"/><path class="cls-1" d="M148.79,75.35l1,.13a2.51,2.51,0,0,1-.9,1.4,3.05,3.05,0,0,1-3.72-.3,3.1,3.1,0,0,1-.76-2.22,3.25,3.25,0,0,1,.76-2.3,2.59,2.59,0,0,1,2-.82,2.51,2.51,0,0,1,1.92.8,3.18,3.18,0,0,1,.75,2.25c0,.06,0,.15,0,.27h-4.38A2.25,2.25,0,0,0,146,76a1.63,1.63,0,0,0,1.23.51,1.51,1.51,0,0,0,.93-.29,1.91,1.91,0,0,0,.61-.92m-3.27-1.61h3.28a2,2,0,0,0-.38-1.11,1.52,1.52,0,0,0-1.23-.58,1.58,1.58,0,0,0-1.15.46,1.82,1.82,0,0,0-.52,1.23"/><path class="cls-1" d="M151.05,77.24V71.37h.9v.89a2.42,2.42,0,0,1,.63-.82,1.11,1.11,0,0,1,.64-.2,1.94,1.94,0,0,1,1,.32l-.34.92a1.44,1.44,0,0,0-.73-.22,1,1,0,0,0-.59.2,1.06,1.06,0,0,0-.37.54,3.89,3.89,0,0,0-.17,1.16v3.07Z"/><path class="cls-1" d="M158.66,76.52a3.71,3.71,0,0,1-1.06.66,3.07,3.07,0,0,1-1.1.19A2.13,2.13,0,0,1,155,76.9a1.56,1.56,0,0,1-.52-1.21,1.6,1.6,0,0,1,.2-.79,1.62,1.62,0,0,1,.51-.57,2.44,2.44,0,0,1,.72-.33,7,7,0,0,1,.89-.15,9,9,0,0,0,1.77-.34c0-.14,0-.22,0-.26a1.1,1.1,0,0,0-.28-.86,1.66,1.66,0,0,0-1.13-.34,1.75,1.75,0,0,0-1,.25,1.5,1.5,0,0,0-.49.87l-1-.13a2.41,2.41,0,0,1,.43-1,1.93,1.93,0,0,1,.88-.59,3.92,3.92,0,0,1,1.33-.21,3.54,3.54,0,0,1,1.22.18,1.61,1.61,0,0,1,.69.44,1.59,1.59,0,0,1,.31.68,5.64,5.64,0,0,1,0,.92v1.33a14.21,14.21,0,0,0,.06,1.76,2.23,2.23,0,0,0,.25.7h-1a2.1,2.1,0,0,1-.2-.72m-.08-2.22a7.37,7.37,0,0,1-1.62.38,3.8,3.8,0,0,0-.87.2.87.87,0,0,0-.39.32.88.88,0,0,0,.16,1.14,1.29,1.29,0,0,0,.88.27,2.06,2.06,0,0,0,1-.25,1.56,1.56,0,0,0,.66-.69,2.41,2.41,0,0,0,.16-1Z"/><path class="cls-1" d="M164.23,79.5l-.11-.93a2.17,2.17,0,0,0,.57.09,1.1,1.1,0,0,0,.53-.11.92.92,0,0,0,.32-.31,4.69,4.69,0,0,0,.3-.74l.09-.24-2.23-5.88h1.07l1.22,3.4q.24.64.42,1.36a13.54,13.54,0,0,1,.41-1.34l1.26-3.42h1l-2.23,6a12,12,0,0,1-.56,1.33,2,2,0,0,1-.61.72,1.44,1.44,0,0,1-.82.23,2,2,0,0,1-.64-.12"/><polygon class="cls-1" points="175.06 77.24 175.06 70.09 172.39 70.09 172.39 69.14 178.81 69.14 178.81 70.09 176.13 70.09 176.13 77.24 175.06 77.24"/><path class="cls-1" d="M183.21,77.24v-.86a2.15,2.15,0,0,1-1.86,1,2.38,2.38,0,0,1-1-.2,1.6,1.6,0,0,1-.67-.5,1.9,1.9,0,0,1-.31-.74,5.11,5.11,0,0,1-.06-.93V71.37h1v3.26a5.77,5.77,0,0,0,.06,1,1,1,0,0,0,.4.62,1.23,1.23,0,0,0,.75.22,1.65,1.65,0,0,0,.84-.23,1.27,1.27,0,0,0,.55-.62,3.11,3.11,0,0,0,.16-1.15V71.37h1v5.87Z"/><path class="cls-1" d="M185.64,77.24V71.37h.9v.89a2.42,2.42,0,0,1,.63-.82,1.1,1.1,0,0,1,.64-.2,1.93,1.93,0,0,1,1,.32l-.34.92a1.44,1.44,0,0,0-.73-.22,1,1,0,0,0-.59.2,1.05,1.05,0,0,0-.37.54,3.89,3.89,0,0,0-.17,1.16v3.07Z"/><path class="cls-1" d="M189.72,70.64l.73-1.55h1.3l-1.22,1.55Zm0,.73h1v5.87h-1Z"/><path class="cls-1" d="M192.17,75.49l1-.15a1.37,1.37,0,0,0,.46.91,1.61,1.61,0,0,0,1.06.32,1.55,1.55,0,0,0,1-.28.83.83,0,0,0,.33-.65.6.6,0,0,0-.29-.53,4.26,4.26,0,0,0-1-.34,9.17,9.17,0,0,1-1.52-.48,1.47,1.47,0,0,1-.64-.56,1.48,1.48,0,0,1-.22-.79,1.5,1.5,0,0,1,.18-.73,1.59,1.59,0,0,1,.49-.56,2.06,2.06,0,0,1,.63-.29,3,3,0,0,1,.86-.12,3.39,3.39,0,0,1,1.21.2,1.65,1.65,0,0,1,.77.54,2.11,2.11,0,0,1,.34.91l-1,.13a1.07,1.07,0,0,0-.38-.71,1.4,1.4,0,0,0-.9-.26,1.63,1.63,0,0,0-1,.23.66.66,0,0,0-.29.53.55.55,0,0,0,.12.35.88.88,0,0,0,.38.27l.88.25a12.09,12.09,0,0,1,1.47.46,1.49,1.49,0,0,1,.66.52,1.46,1.46,0,0,1,.24.85,1.68,1.68,0,0,1-.29.94,1.88,1.88,0,0,1-.84.68,3,3,0,0,1-1.24.24,2.76,2.76,0,0,1-1.74-.47,2.21,2.21,0,0,1-.77-1.41"/><path class="cls-1" d="M200.4,76.35l.14.88a3.78,3.78,0,0,1-.75.09,1.7,1.7,0,0,1-.84-.17,1,1,0,0,1-.42-.45,3.56,3.56,0,0,1-.12-1.17V72.14h-.73v-.77h.73V69.92l1-.6v2.05h1v.77h-1v3.43a1.72,1.72,0,0,0,.05.55.41.41,0,0,0,.17.19.65.65,0,0,0,.34.07l.44,0"/><path class="cls-1" d="M201.38,69.14h1v1.14h-1Zm0,2.23h1v5.87h-1Z"/><path class="cls-1" d="M207.72,75.09l1,.13a2.53,2.53,0,0,1-.82,1.58,2.39,2.39,0,0,1-1.62.57,2.51,2.51,0,0,1-1.94-.79,3.19,3.19,0,0,1-.73-2.26,4.09,4.09,0,0,1,.32-1.66,2.2,2.2,0,0,1,1-1.07,2.84,2.84,0,0,1,1.4-.36,2.43,2.43,0,0,1,1.56.48,2.21,2.21,0,0,1,.78,1.37l-1,.15a1.61,1.61,0,0,0-.49-.89,1.26,1.26,0,0,0-.85-.3,1.54,1.54,0,0,0-1.22.54,2.56,2.56,0,0,0-.47,1.71,2.64,2.64,0,0,0,.45,1.72,1.47,1.47,0,0,0,1.18.54,1.39,1.39,0,0,0,1-.36,1.78,1.78,0,0,0,.5-1.11"/><path class="cls-1" d="M213.37,76.52a3.7,3.7,0,0,1-1.06.66,3.07,3.07,0,0,1-1.1.19,2.13,2.13,0,0,1-1.49-.47,1.56,1.56,0,0,1-.52-1.21,1.6,1.6,0,0,1,.2-.79,1.62,1.62,0,0,1,.51-.57,2.42,2.42,0,0,1,.72-.33,7,7,0,0,1,.89-.15,9,9,0,0,0,1.77-.34c0-.14,0-.22,0-.26a1.1,1.1,0,0,0-.28-.86,1.66,1.66,0,0,0-1.13-.34,1.75,1.75,0,0,0-1,.25,1.49,1.49,0,0,0-.49.87l-1-.13a2.41,2.41,0,0,1,.44-1,1.92,1.92,0,0,1,.88-.59,3.92,3.92,0,0,1,1.33-.21,3.55,3.55,0,0,1,1.22.18,1.61,1.61,0,0,1,.69.44,1.59,1.59,0,0,1,.31.68,5.64,5.64,0,0,1,0,.92v1.33a14.21,14.21,0,0,0,.06,1.76,2.23,2.23,0,0,0,.25.7h-1a2.1,2.1,0,0,1-.2-.72m-.08-2.22a7.36,7.36,0,0,1-1.62.38,3.81,3.81,0,0,0-.87.2.89.89,0,0,0-.39.32.86.86,0,0,0-.14.47.85.85,0,0,0,.3.66,1.29,1.29,0,0,0,.88.27,2.06,2.06,0,0,0,1-.25,1.56,1.56,0,0,0,.66-.69,2.39,2.39,0,0,0,.16-1Z"/><path class="cls-1" d="M222.79,77.24V76.5a1.83,1.83,0,0,1-1.64.87,2.3,2.3,0,0,1-1.29-.39,2.54,2.54,0,0,1-.91-1.08,3.75,3.75,0,0,1-.32-1.6,4.16,4.16,0,0,1,.29-1.59,2.3,2.3,0,0,1,.88-1.1,2.35,2.35,0,0,1,1.31-.38,2,2,0,0,1,.94.22,2,2,0,0,1,.67.58V69.14h1v8.1Zm-3.14-2.93a2.54,2.54,0,0,0,.48,1.69,1.43,1.43,0,0,0,1.12.56,1.4,1.4,0,0,0,1.11-.53,2.45,2.45,0,0,0,.46-1.63,2.76,2.76,0,0,0-.46-1.77,1.43,1.43,0,0,0-1.14-.56,1.38,1.38,0,0,0-1.11.54,2.67,2.67,0,0,0-.44,1.71"/><path class="cls-1" d="M229.3,75.35l1,.13a2.5,2.5,0,0,1-.9,1.4,3.05,3.05,0,0,1-3.72-.3,3.1,3.1,0,0,1-.76-2.22,3.25,3.25,0,0,1,.76-2.3,2.59,2.59,0,0,1,2-.82,2.51,2.51,0,0,1,1.92.8,3.18,3.18,0,0,1,.75,2.25c0,.06,0,.15,0,.27H226a2.26,2.26,0,0,0,.55,1.48,1.63,1.63,0,0,0,1.23.51,1.51,1.51,0,0,0,.93-.29,1.91,1.91,0,0,0,.61-.92M226,73.74h3.28a2,2,0,0,0-.38-1.11,1.52,1.52,0,0,0-1.23-.58,1.58,1.58,0,0,0-1.15.46,1.82,1.82,0,0,0-.52,1.23"/><path class="cls-1" d="M240.62,74.4l1.07.27a3.6,3.6,0,0,1-1.21,2,3.34,3.34,0,0,1-2.14.69,3.85,3.85,0,0,1-2.13-.53A3.33,3.33,0,0,1,235,75.3a5.51,5.51,0,0,1-.43-2.17,4.76,4.76,0,0,1,.48-2.21,3.31,3.31,0,0,1,1.38-1.43,4,4,0,0,1,2-.49,3.32,3.32,0,0,1,2,.62,3.21,3.21,0,0,1,1.16,1.74l-1.06.25a2.5,2.5,0,0,0-.82-1.29,2.17,2.17,0,0,0-1.35-.4,2.62,2.62,0,0,0-1.56.45,2.36,2.36,0,0,0-.88,1.2,4.83,4.83,0,0,0-.26,1.56,4.93,4.93,0,0,0,.3,1.8,2.24,2.24,0,0,0,.94,1.15,2.63,2.63,0,0,0,1.38.38,2.31,2.31,0,0,0,1.53-.52,2.66,2.66,0,0,0,.85-1.54"/><path class="cls-1" d="M242.52,74.3a3,3,0,0,1,.91-2.41,2.73,2.73,0,0,1,1.84-.65,2.63,2.63,0,0,1,2,.79,3,3,0,0,1,.77,2.19,3.87,3.87,0,0,1-.34,1.78,2.4,2.4,0,0,1-1,1,2.87,2.87,0,0,1-1.42.36,2.64,2.64,0,0,1-2-.79,3.15,3.15,0,0,1-.76-2.28m1,0A2.5,2.5,0,0,0,244,76a1.64,1.64,0,0,0,2.47,0,2.57,2.57,0,0,0,.49-1.72,2.43,2.43,0,0,0-.49-1.65,1.64,1.64,0,0,0-2.47,0,2.49,2.49,0,0,0-.49,1.69"/><rect class="cls-1" x="249.16" y="69.14" width="0.99" height="8.1"/><path class="cls-1" d="M251.33,74.3a3,3,0,0,1,.91-2.41,2.73,2.73,0,0,1,1.84-.65,2.63,2.63,0,0,1,2,.79,3,3,0,0,1,.77,2.19,3.87,3.87,0,0,1-.34,1.78,2.4,2.4,0,0,1-1,1,2.87,2.87,0,0,1-1.42.36,2.64,2.64,0,0,1-2-.79,3.15,3.15,0,0,1-.76-2.28m1,0a2.5,2.5,0,0,0,.49,1.69,1.64,1.64,0,0,0,2.47,0,2.57,2.57,0,0,0,.49-1.72,2.43,2.43,0,0,0-.49-1.65,1.64,1.64,0,0,0-2.47,0,2.5,2.5,0,0,0-.49,1.69"/><path class="cls-1" d="M258,77.24V71.37h.89v.82a2.07,2.07,0,0,1,1.78-1,1.92,1.92,0,0,1,1.07.27,1.44,1.44,0,0,1,.59.76,2.11,2.11,0,0,1,1.81-1,1.79,1.79,0,0,1,1.34.48,2.06,2.06,0,0,1,.47,1.49v4h-1v-3.7a2.72,2.72,0,0,0-.1-.86.83.83,0,0,0-.35-.42,1.11,1.11,0,0,0-.6-.16,1.39,1.39,0,0,0-1,.41,1.81,1.81,0,0,0-.41,1.32v3.41h-1V73.43a1.68,1.68,0,0,0-.24-1,.92.92,0,0,0-.8-.33,1.45,1.45,0,0,0-.78.22,1.26,1.26,0,0,0-.52.65A3.64,3.64,0,0,0,259,74.2v3Z"/><path class="cls-1" d="M268.34,77.24h-.92v-8.1h1V72a2,2,0,0,1,1.61-.79,2.48,2.48,0,0,1,1,.22,2.11,2.11,0,0,1,.8.61,3,3,0,0,1,.49,1,3.92,3.92,0,0,1,.18,1.19,3.36,3.36,0,0,1-.74,2.33,2.34,2.34,0,0,1-1.79.82,1.87,1.87,0,0,1-1.63-.87Zm0-3a3.05,3.05,0,0,0,.29,1.53,1.42,1.42,0,0,0,2.4.2,2.58,2.58,0,0,0,.47-1.69,2.61,2.61,0,0,0-.46-1.7,1.39,1.39,0,0,0-1.1-.55,1.43,1.43,0,0,0-1.13.57,2.48,2.48,0,0,0-.47,1.64"/><path class="cls-1" d="M273.72,69.14h1v1.14h-1Zm0,2.23h1v5.87h-1Z"/><path class="cls-1" d="M280.06,76.52a3.71,3.71,0,0,1-1.06.66,3.07,3.07,0,0,1-1.1.19,2.13,2.13,0,0,1-1.49-.47,1.56,1.56,0,0,1-.52-1.21,1.6,1.6,0,0,1,.2-.79,1.62,1.62,0,0,1,.51-.57,2.44,2.44,0,0,1,.72-.33,7,7,0,0,1,.89-.15,9,9,0,0,0,1.77-.34c0-.14,0-.22,0-.26a1.1,1.1,0,0,0-.28-.86,1.66,1.66,0,0,0-1.13-.34,1.75,1.75,0,0,0-1,.25,1.5,1.5,0,0,0-.49.87l-1-.13a2.41,2.41,0,0,1,.43-1,1.93,1.93,0,0,1,.88-.59,3.92,3.92,0,0,1,1.33-.21,3.54,3.54,0,0,1,1.22.18,1.61,1.61,0,0,1,.69.44,1.59,1.59,0,0,1,.31.68,5.64,5.64,0,0,1,0,.92v1.33a14.21,14.21,0,0,0,.06,1.76,2.23,2.23,0,0,0,.25.7h-1a2.1,2.1,0,0,1-.2-.72M280,74.29a7.37,7.37,0,0,1-1.62.38,3.81,3.81,0,0,0-.87.2.88.88,0,0,0-.39.32.86.86,0,0,0-.14.47.85.85,0,0,0,.3.66,1.29,1.29,0,0,0,.88.27,2.06,2.06,0,0,0,1-.25,1.56,1.56,0,0,0,.66-.69,2.41,2.41,0,0,0,.16-1Z"/></g></g></svg>