<svg xmlns="http://www.w3.org/2000/svg" viewBox="0 0 123.12 168.51"><defs><style>.cls-1{fill:#696969;}.cls-2{font-size:7.66px;}.cls-10,.cls-11,.cls-12,.cls-13,.cls-14,.cls-15,.cls-16,.cls-17,.cls-18,.cls-19,.cls-2,.cls-20,.cls-21,.cls-22,.cls-23,.cls-24,.cls-25,.cls-26,.cls-27,.cls-28,.cls-29,.cls-3,.cls-30,.cls-31,.cls-32,.cls-33,.cls-34,.cls-4,.cls-5,.cls-6,.cls-7,.cls-8,.cls-9{fill:#fff;font-family:Futura-Medium, Futura;}.cls-3{font-size:7.66px;}.cls-4{font-size:7.66px;}.cls-5{font-size:7.66px;}.cls-6{font-size:7.66px;}.cls-7{font-size:7.66px;}.cls-8{font-size:7.66px;}.cls-9{font-size:7.66px;}.cls-10{font-size:7.66px;}.cls-11{font-size:7.66px;}.cls-12{font-size:7.66px;}.cls-13{font-size:7.66px;}.cls-14{font-size:7.66px;}.cls-15{font-size:7.66px;}.cls-16{font-size:7.66px;}.cls-17{font-size:7.66px;}.cls-18{font-size:7.66px;}.cls-19{font-size:7.66px;}.cls-20{font-size:7.66px;}.cls-21{font-size:7.66px;}.cls-22{font-size:7.66px;}.cls-23{font-size:7.66px;}.cls-24{font-size:7.66px;}.cls-25{font-size:7.66px;}.cls-26{font-size:7.66px;}.cls-27{font-size:7.66px;}.cls-28{font-size:7.66px;}.cls-29{font-size:4.67px;}.cls-30{font-size:7.66px;}.cls-31{font-size:7.66px;}.cls-32{font-size:7.66px;}.cls-33{font-size:7.66px;}.cls-34{font-size:7.66px;}.cls-35{fill:#f3f3f3;}.cls-36,.cls-37{fill:none;stroke-miterlimit:10;stroke-width:1.04px;}.cls-36{stroke:#696969;stroke-linecap:round;stroke-dasharray:0.07 2.09;}.cls-37{stroke:#fff;}.cls-38{fill:#6d6d6d;}.cls-39{fill:#4e4e4e;}.cls-40{fill:#b9b9b9;}</style></defs><title>turi</title><g id="Capa_2" data-name="Capa 2"><g id="Capa_1-2" data-name="Capa 1"><path class="cls-1" d="M123.12,61.56a61.56,61.56,0,1,0-98.35,49.37v48a9.6,9.6,0,0,0,9.61,9.6H88.16a9.6,9.6,0,0,0,9.61-9.6V111.35a61.47,61.47,0,0,0,25.36-49.79"/><text class="cls-2" transform="matrix(-0.63, -0.78, 0.78, -0.63, 24.04, 93)">·</text><text class="cls-3" transform="translate(21.26 89.41) rotate(-123.74)"> </text><text class="cls-4" transform="translate(18.81 85.68) rotate(-116.73)">C</text><text class="cls-5" transform="translate(15.61 78.9) rotate(-108.47)">E</text><text class="cls-6" transform="matrix(-0.19, -0.98, 0.98, -0.19, 13.7, 72.78)">R</text><text class="cls-7" transform="matrix(-0.06, -1, 1, -0.06, 12.62, 66.18)">T</text><text class="cls-8" transform="translate(12.42 60.37) rotate(-87.51)">I</text><text class="cls-9" transform="matrix(0.15, -0.99, 0.99, 0.15, 12.69, 55.94)">F</text><text class="cls-10" transform="matrix(0.26, -0.97, 0.97, 0.26, 13.74, 50.02)">I</text><text class="cls-11" transform="translate(14.9 45.78) rotate(-68.17)">C</text><text class="cls-12" transform="matrix(0.51, -0.86, 0.86, 0.51, 17.88, 38.78)">A</text><text class="cls-13" transform="translate(21.86 32.44) rotate(-50.42)">C</text><text class="cls-14" transform="translate(26.65 26.82) rotate(-40.94)">O</text><text class="cls-15" transform="translate(33.59 21.19) rotate(-33.1)"> </text><text class="cls-16" transform="translate(37.39 18.76) rotate(-25.9)">D</text><text class="cls-17" transform="matrix(0.95, -0.3, 0.3, 0.95, 44.34, 15.6)">E</text><text class="cls-18" transform="translate(50.58 13.81) rotate(-11.07)"> </text><text class="cls-19" transform="matrix(1, -0.07, 0.07, 1, 54.99, 12.98)">C</text><text class="cls-20" transform="translate(62.57 12.61) rotate(4.94)">A</text><text class="cls-21" transform="matrix(0.98, 0.22, -0.22, 0.98, 70.27, 13.49)">L</text><text class="cls-22" transform="matrix(0.95, 0.32, -0.32, 0.95, 75.67, 14.86)">I</text><text class="cls-23" transform="translate(79.8 16.28) rotate(25.77)">D</text><text class="cls-15" transform="matrix(0.82, 0.57, -0.57, 0.82, 86.39, 19.61)">A</text><text class="cls-24" transform="translate(92.67 24.14) rotate(43.51)">D</text><text class="cls-25" transform="translate(98.09 29.6) rotate(50.64)"> </text><text class="cls-26" transform="matrix(0.55, 0.84, -0.84, 0.55, 100.88, 33.13)">T</text><text class="cls-15" transform="translate(104 38.02) rotate(64.67)">U</text><text class="cls-27" transform="matrix(0.29, 0.96, -0.96, 0.29, 107.15, 45.13)">R</text><text class="cls-28" transform="translate(108.91 51.62) rotate(79.83)">Í</text><text class="cls-29" transform="matrix(0.06, 1.64, -0.99, 0.11, 105.87, 55.96)">S</text><text class="cls-30" transform="translate(109.89 62.64) rotate(93.58)">T</text><text class="cls-31" transform="matrix(-0.17, 0.99, -0.99, -0.17, 109.38, 68.46)">I</text><text class="cls-32" transform="matrix(-0.29, 0.96, -0.96, -0.29, 108.61, 72.78)">C</text><text class="cls-23" transform="matrix(-0.43, 0.9, -0.9, -0.43, 106.29, 80)">A</text><text class="cls-33" transform="translate(102.68 86.92) rotate(123.01)"> </text><text class="cls-34" transform="translate(100.13 90.67) rotate(128.33)">·</text><path class="cls-35" d="M107,61.56A45.48,45.48,0,1,1,61.56,16.09,45.48,45.48,0,0,1,107,61.56"/><circle class="cls-36" cx="61.56" cy="61.56" r="43.71"/><path class="cls-35" d="M54.83,126.07a14.54,14.54,0,0,0-8.08.64,13.6,13.6,0,0,0-4.28,2.62,12.77,12.77,0,0,0-3,4,12.4,12.4,0,0,0,0,10.3,13.24,13.24,0,0,0,3,4.06,13.39,13.39,0,0,0,4.27,2.65,13.88,13.88,0,0,0,5.05.94,14.55,14.55,0,0,0,2.6-.24,20.28,20.28,0,0,0,2.79-.74,2.38,2.38,0,0,0,2.09-2.37v-4.85a1.13,1.13,0,0,0-1.09-1.14l-.53,0a1.32,1.32,0,0,0-.92.35,6.6,6.6,0,0,1-4.57,1.85,6.11,6.11,0,0,1-2.32-.43,5.87,5.87,0,0,1-1.86-1.2,5.42,5.42,0,0,1-1.23-1.78,5.62,5.62,0,0,1-.44-2.24,5.53,5.53,0,0,1,.44-2.21A5.4,5.4,0,0,1,48,134.53a5.84,5.84,0,0,1,1.86-1.18,6.34,6.34,0,0,1,2.37-.44,6.09,6.09,0,0,1,4.47,1.83,1.43,1.43,0,0,0,1,.43h.55a.87.87,0,0,0,.84-.84l.17-4.69A3,3,0,0,0,57.89,127a19,19,0,0,0-3.06-.93"/><path class="cls-35" d="M80.92,130a12.08,12.08,0,0,0-4-2.56,14.42,14.42,0,0,0-10.11,0,11.94,11.94,0,0,0,0,22.25,14.36,14.36,0,0,0,10.11,0,12.07,12.07,0,0,0,4-2.56,11.77,11.77,0,0,0,2.62-3.83,12.4,12.4,0,0,0,0-9.47A11.73,11.73,0,0,0,80.92,130m-3.61,8.57a5.11,5.11,0,0,1-.43,2.11,5.27,5.27,0,0,1-1.18,1.68A5.45,5.45,0,0,1,74,143.43a5.71,5.71,0,0,1-4.18,0,5.26,5.26,0,0,1-1.72-1.11,5.35,5.35,0,0,1-1.17-1.68,5.39,5.39,0,0,1,0-4.22,5.39,5.39,0,0,1,1.17-1.68,5.3,5.3,0,0,1,1.72-1.11,5.59,5.59,0,0,1,5.92,1.11,5.27,5.27,0,0,1,1.18,1.68,5.12,5.12,0,0,1,.43,2.11"/><path class="cls-35" d="M42.5,154.19a3.62,3.62,0,0,0-2,.16,3.36,3.36,0,0,0-1.05.64,3.09,3.09,0,0,0-.73,1,3,3,0,0,0,0,2.5,3.22,3.22,0,0,0,.73,1,3.31,3.31,0,0,0,1,.64,3.46,3.46,0,0,0,1.24.23,3.65,3.65,0,0,0,.64-.06,5.08,5.08,0,0,0,.69-.18.58.58,0,0,0,.51-.58v-1.18a.28.28,0,0,0-.27-.28H43.2a.32.32,0,0,0-.22.09,1.64,1.64,0,0,1-1.12.45,1.51,1.51,0,0,1-.57-.11,1.43,1.43,0,0,1-.46-.29,1.31,1.31,0,0,1-.3-.43,1.36,1.36,0,0,1-.11-.54,1.32,1.32,0,0,1,.41-1,1.45,1.45,0,0,1,.46-.29,1.56,1.56,0,0,1,.58-.11,1.51,1.51,0,0,1,1.1.44.35.35,0,0,0,.25.11h.14a.21.21,0,0,0,.21-.2l0-1.14a.71.71,0,0,0-.35-.64,4.66,4.66,0,0,0-.75-.23"/><path class="cls-35" d="M49.38,155a3.12,3.12,0,0,0-1-.66,3.71,3.71,0,0,0-2.6,0,3.11,3.11,0,0,0-1,.66,3.07,3.07,0,0,0-.91,2.2,3,3,0,0,0,1.94,2.86,3.69,3.69,0,0,0,2.6,0,3.11,3.11,0,0,0,1-.66,3,3,0,0,0,.67-1,3.19,3.19,0,0,0,0-2.44,3,3,0,0,0-.67-1m-.93,2.2a1.33,1.33,0,0,1-.11.54,1.39,1.39,0,0,1-.3.43,1.42,1.42,0,0,1-.45.29,1.48,1.48,0,0,1-1.07,0,1.37,1.37,0,0,1-.44-.28,1.42,1.42,0,0,1-.3-.43,1.38,1.38,0,0,1,0-1.09,1.41,1.41,0,0,1,.3-.43,1.38,1.38,0,0,1,.44-.29,1.44,1.44,0,0,1,1.52.29,1.38,1.38,0,0,1,.3.43,1.32,1.32,0,0,1,.11.54"/><path class="cls-35" d="M52.6,154.27H51.12a.2.2,0,0,0-.21.2V160a.21.21,0,0,0,.21.2h3.34a.2.2,0,0,0,.2-.2V158.8a.2.2,0,0,0-.2-.2H53a.2.2,0,0,1-.2-.2v-3.92a.2.2,0,0,0-.2-.2"/><path class="cls-35" d="M60.6,155a3.11,3.11,0,0,0-1-.66,3.71,3.71,0,0,0-2.6,0,3.11,3.11,0,0,0-1,.66,3.07,3.07,0,0,0,1,5.07,3.69,3.69,0,0,0,2.6,0,3.09,3.09,0,0,0,1-.66,3,3,0,0,0,.67-1,3.2,3.2,0,0,0,0-2.44,3,3,0,0,0-.67-1m-.93,2.2a1.33,1.33,0,0,1-.11.54,1.37,1.37,0,0,1-.3.43,1.42,1.42,0,0,1-.45.29,1.48,1.48,0,0,1-1.08,0,1.39,1.39,0,0,1-.44-.28,1.43,1.43,0,0,1-.3-.43,1.4,1.4,0,0,1,0-1.09,1.41,1.41,0,0,1,.3-.43,1.39,1.39,0,0,1,.44-.29,1.44,1.44,0,0,1,1.52.29,1.37,1.37,0,0,1,.3.43,1.32,1.32,0,0,1,.11.54"/><path class="cls-35" d="M66.5,154.4l-.83,2.07a.21.21,0,0,1-.38,0l-.84-2.07a.21.21,0,0,0-.19-.13H62.78a.21.21,0,0,0-.2.17l-1,5.47a.21.21,0,0,0,.2.24h1.46a.21.21,0,0,0,.2-.17l.3-1.87a.21.21,0,0,1,.4,0l.82,2a.21.21,0,0,0,.19.13h.57a.21.21,0,0,0,.19-.12l.89-2a.21.21,0,0,1,.39,0L67.5,160a.21.21,0,0,0,.2.17h1.46a.21.21,0,0,0,.2-.24l-1-5.47a.21.21,0,0,0-.2-.17H66.69a.21.21,0,0,0-.19.13"/><path class="cls-35" d="M74.6,157.4a1.38,1.38,0,0,0-.43-.34l-.26-.11a1.32,1.32,0,0,0,.25-.31,1.53,1.53,0,0,0,.19-.78,1.49,1.49,0,0,0-.49-1.19,2,2,0,0,0-1.36-.41H70.23a.21.21,0,0,0-.21.21V160a.21.21,0,0,0,.21.21h2.45a3.41,3.41,0,0,0,.9-.11,2,2,0,0,0,.7-.34,1.59,1.59,0,0,0,.46-.57,1.74,1.74,0,0,0,.16-.77,1.86,1.86,0,0,0-.07-.52,1.26,1.26,0,0,0-.24-.46m-2.57-1h-.12v-.74H72c.56,0,.56.25.56.37s0,.37-.56.37m-.12,1.41h.17a1.64,1.64,0,0,1,.76.12.36.36,0,0,1,0,.61,1.67,1.67,0,0,1-.76.12h-.17Z"/><path class="cls-35" d="M75.6,160.16h1.69a.1.1,0,0,0,.1-.1v-5.69a.1.1,0,0,0-.1-.1H75.6a.1.1,0,0,0-.1.1v5.69a.1.1,0,0,0,.1.1"/><path class="cls-35" d="M82.46,154.27H80.6a0,0,0,0,0,0,0l-2.37,5.79a0,0,0,0,0,0,.07h1.91a0,0,0,0,0,0,0l.33-.9a.05.05,0,0,1,0,0h1.91a0,0,0,0,1,0,0l.33.9a0,0,0,0,0,0,0h1.91a0,0,0,0,0,0-.07L82.5,154.3a0,0,0,0,0,0,0m-.54,3.49h-.76a0,0,0,0,1,0-.07l.38-1a0,0,0,0,1,.09,0l.38,1a0,0,0,0,1,0,.07"/><circle class="cls-37" cx="61.1" cy="61.72" r="58.54"/><path class="cls-38" d="M67.92,96.3l7.84-9.54s9.93-2.91,14.53-12.47S100.71,42.92,77,31.54s-42.14,7.87-42.39,8.23S20.67,56,35.44,79.5,67.92,96.3,67.92,96.3"/><path class="cls-39" d="M69.65,59.33s-2.45-.18-3,1S65,63.24,66.2,63.42s3.91-.45,4.63-2,1.64-6.36-.18-7.45-8.81-5-13.26-.36-1.18,11.08.18,12.62,5.09,6.27,12.08,5.54S79,68,80.37,65.15s3.09-14.08-6.81-18.44S52.4,42.08,48,48.62s-2.09,16.8-.54,19.62,8.08,11.9,19.62,12.63,18.53-8.08,21.34-13.17S93.63,48.16,78.1,38.26s-29.34-2.91-33.24-.09S32.42,48,36.14,64.42,49.95,86,55.21,88.58s21.53,6.08,22-2.36c0,0-12.62,3.81-20,.91S37,68.87,37.14,56.15,48.95,38.44,52.4,37.72s15.44-2,24.07,3.45S87.64,54.25,88,58s-.91,9.08-5,14.35-12.9,7.45-20.25,5.45-16.44-10.72-15.26-18S51.85,49,53.31,48s8.36-4.63,18.89.09c0,0,7.08,3.63,6.81,11.35S71.47,69.6,70.56,69.6s-9.63.18-10.9-6.27c0,0-.09-6.72,4.09-8a6.75,6.75,0,0,1,4.39,0,2.94,2.94,0,0,1,1.93,3.31c-.07.35-.2.61-.42.67"/><path class="cls-40" d="M65.37,55.39a1.36,1.36,0,0,1,.47,2.48,2.88,2.88,0,0,0-1.55,1.73c-.27,1.72-.45,4.54.64,5.18s5.09,2.63,7.72-.91,3.54-7.36,1.64-9.72S67.84,47.8,59.84,49,51.4,62.24,53.4,66.05s8.08,9.81,15.08,8.54,11.9-3.36,14-7.72,5.18-10.17-1.73-17.8-19.8-10.35-27.25-7.54-14.35,9.35-11.17,21.8,14,19.16,20.44,20.07,21.71.27,27.43-11.54,4.36-28.79-12-36.87-31.7-2.54-38.87,4.09-11.44,23.61-3.72,33.6S51.31,94.57,67.93,96.3c0,0-.45,3.54-2.27,4.18s-6.36-.73-7.36-1.18S40.68,90.12,33.51,79.59s-11-25-2.72-39.87,32.88-13.08,38-11.9,17.71,3.09,24.89,16.44-.73,29.06-.73,29.06-5.27,10.54-15.71,12.9-14.8,2.63-20,.91S40,74,37.59,60.06,46.4,38.35,53.67,37.54s22.16-1.91,31.24,12.08-4.18,24.79-4.18,24.79S69.2,84.13,55,73.59,50,51.52,52.4,48.8,62,44.08,70.29,47.34,78.83,56.79,79,59.42,75.38,69,70.56,69.6s-10.9-2.45-10.9-6.27,1.73-7.63,4.09-8a4.64,4.64,0,0,1,1.62.05"/></g></g></svg>